<?xml version="1.0" encoding="UTF-8"?>
<?xml-stylesheet href="../css/style.css" type="text/css"?>
<svg preserveAspectRatio="xMinYMin meet" viewBox="0 0 710 1120" width="710" height="1120" xmlns="http://www.w3.org/2000/svg" >
 <defs>
  <linearGradient id="SVGID_1_" x1="0.403883" y1="-0.243175" x2="0.641656" y2="1.380766">
   <stop offset="0" stop-opacity="0" stop-color="#231F20"/>
   <stop offset="0.0129" stop-opacity="0.0257" stop-color="#2C2829"/>
   <stop offset="0.1154" stop-opacity="0.2293" stop-color="#6B6869"/>
   <stop offset="0.213" stop-opacity="0.4234" stop-color="#A09E9F"/>
   <stop offset="0.3032" stop-opacity="0.6027" stop-color="#C9C8C8"/>
   <stop offset="0.3844" stop-opacity="0.7642" stop-color="#E7E6E6"/>
   <stop offset="0.4538" stop-opacity="0.902" stop-color="#F9F8F8"/>
   <stop offset="0.5031" stop-color="#FFFFFF"/>
   <stop offset="0.5578" stop-opacity="0.8899" stop-color="#EFEEEE"/>
   <stop offset="0.6656" stop-opacity="0.6729" stop-color="#C4C3C3"/>
   <stop offset="0.8162" stop-opacity="0.3698" stop-color="#7F7D7E"/>
   <stop offset="1" stop-opacity="0" stop-color="#231F20"/>
  </linearGradient>
  <linearGradient id="SVGID_2_" x1="0.375555" y1="-0.293404" x2="0.680094" y2="1.406923">
   <stop offset="0" stop-opacity="0" stop-color="#231F20"/>
   <stop offset="0.0129" stop-opacity="0.0257" stop-color="#2C2829"/>
   <stop offset="0.1154" stop-opacity="0.2293" stop-color="#6B6869"/>
   <stop offset="0.213" stop-opacity="0.4234" stop-color="#A09E9F"/>
   <stop offset="0.3032" stop-opacity="0.6027" stop-color="#C9C8C8"/>
   <stop offset="0.3844" stop-opacity="0.7642" stop-color="#E7E6E6"/>
   <stop offset="0.4538" stop-opacity="0.902" stop-color="#F9F8F8"/>
   <stop offset="0.5031" stop-color="#FFFFFF"/>
   <stop offset="0.5578" stop-opacity="0.8899" stop-color="#EFEEEE"/>
   <stop offset="0.6656" stop-opacity="0.6729" stop-color="#C4C3C3"/>
   <stop offset="0.8162" stop-opacity="0.3698" stop-color="#7F7D7E"/>
   <stop offset="1" stop-opacity="0" stop-color="#231F20"/>
  </linearGradient>
  <linearGradient id="SVGID_3_" x1="0.033298" y1="-0.016534" x2="1.193685" y2="1.149139">
   <stop offset="0" stop-opacity="0" stop-color="#231F20"/>
   <stop offset="0.0129" stop-opacity="0.0257" stop-color="#2C2829"/>
   <stop offset="0.1154" stop-opacity="0.2293" stop-color="#6B6869"/>
   <stop offset="0.213" stop-opacity="0.4234" stop-color="#A09E9F"/>
   <stop offset="0.3032" stop-opacity="0.6027" stop-color="#C9C8C8"/>
   <stop offset="0.3844" stop-opacity="0.7642" stop-color="#E7E6E6"/>
   <stop offset="0.4538" stop-opacity="0.902" stop-color="#F9F8F8"/>
   <stop offset="0.5031" stop-color="#FFFFFF"/>
   <stop offset="0.5578" stop-opacity="0.8899" stop-color="#EFEEEE"/>
   <stop offset="0.6656" stop-opacity="0.6729" stop-color="#C4C3C3"/>
   <stop offset="0.8162" stop-opacity="0.3698" stop-color="#7F7D7E"/>
   <stop offset="1" stop-opacity="0" stop-color="#231F20"/>
  </linearGradient>
  <linearGradient id="SVGID_4_" x1="0.279126" y1="-0.087322" x2="1.11545" y2="1.233953">
   <stop offset="0" stop-opacity="0" stop-color="#231F20"/>
   <stop offset="0.0129" stop-opacity="0.0257" stop-color="#2C2829"/>
   <stop offset="0.1154" stop-opacity="0.2293" stop-color="#6B6869"/>
   <stop offset="0.213" stop-opacity="0.4234" stop-color="#A09E9F"/>
   <stop offset="0.3032" stop-opacity="0.6027" stop-color="#C9C8C8"/>
   <stop offset="0.3844" stop-opacity="0.7642" stop-color="#E7E6E6"/>
   <stop offset="0.4538" stop-opacity="0.902" stop-color="#F9F8F8"/>
   <stop offset="0.5031" stop-color="#FFFFFF"/>
   <stop offset="0.5578" stop-opacity="0.8899" stop-color="#EFEEEE"/>
   <stop offset="0.6656" stop-opacity="0.6729" stop-color="#C4C3C3"/>
   <stop offset="0.8162" stop-opacity="0.3698" stop-color="#7F7D7E"/>
   <stop offset="1" stop-opacity="0" stop-color="#231F20"/>
  </linearGradient>
 </defs>
 <g>
  <title>background</title>
  <rect x="-1" y="-1" width="712" height="1122" id="canvas_background" fill="none"/>
 </g>
 <g>
  <title>Layer 1</title>
  <g id="Layer_2">
   <g id="svg_1">
    <path fill="#563620" stroke="#7C4F2C" stroke-width="0.2835" stroke-miterlimit="10" d="m500.591034,1110.895996c0,4.088989 -9.221985,5.853027 -25.067017,6.516968c-2.151001,0.057983 -4.359985,0.111084 -6.734009,0.166016l-227.579041,0c-1.54599,-0.054932 -3.039001,-0.054932 -4.471985,-0.108032c-17.22702,-0.557983 -27.330017,-2.31897 -27.330017,-6.573975c0,-14.958008 25.785004,-42.06897 60.455078,-61.888916c-3.976013,-62.500061 5.357025,-345.574097 5.357025,-577.237061c0,-16.451996 4.803986,-31.744995 13.082001,-44.609985c-10.541992,-1.822021 -20.261047,-4.029022 -20.261047,-6.460022c0,-2.701996 7.729034,-5.187988 20.540039,-7.065002c-2.540009,-27.218994 -3.97699,-47.703979 -3.97699,-55.983978c0,-39.641998 32.13501,-71.77301 71.771973,-71.77301c39.643005,0 71.772034,32.131989 71.772034,71.77301c0,8.334991 -1.432007,28.875 -4.023987,56.205994c12.034973,1.873993 19.208008,4.251984 19.208008,6.843994c0,2.596008 -7.065002,4.971008 -18.828003,6.791992c8.175964,12.811005 12.86499,27.993011 12.86499,44.278015c0,231.38797 9.881958,514.463959 6.018005,577.070038c34.790955,19.875977 57.202942,47.095947 57.202942,62.053955z" id="svg_2"/>
   </g>
  </g>
  <g id="Layer_10"/>
  <g id="sink" stroke="null">
   <g id="svg_3" stroke="null">
    <path fill="#E5E1D1" d="m548.862732,700.166992c-12.843994,-16.93103 -39.699005,-16.346985 -39.699005,-16.346985l-308.007156,0c0,0 -26.854004,-0.584045 -39.699005,16.346985c-12.843994,16.930969 -53.710983,32.588013 -35.612968,75.789978s65.643974,112.196045 216.594093,112.196045c4.33197,0 8.583008,-0.011047 12.727936,-0.058044c4.14502,0.046997 8.384064,0.058044 12.715027,0.058044c150.950989,0 198.496033,-68.994019 216.594055,-112.196045c18.098022,-43.201965 -22.768982,-58.858948 -35.612976,-75.789978zm-193.696075,17.164978c4.577026,0 8.278015,3.711975 8.278015,8.289001c0,4.575989 -3.700989,8.291016 -8.278015,8.291016c-4.575989,0 -8.291016,-3.715027 -8.291016,-8.291016c0.000061,-4.576965 3.715027,-8.289001 8.291016,-8.289001z" id="svg_4" stroke="null"/>
    <g id="svg_5" stroke="null">
     <g id="svg_6" stroke="null">
      <path fill="#DDD8C3" d="m518.295654,704.370972c-2.685974,-2.184021 -5.487976,-3.736023 -8.139984,-4.856995c-6.911987,-2.919983 -12.795959,-2.838989 -12.795959,-2.838989s-288.159103,0.479004 -300.687119,1.016968c-6.468994,0.280029 -10.705994,2.044006 -13.298981,3.700989c-2.440002,1.541016 -3.408997,2.979004 -3.408997,2.979004c-37.925003,31.887024 0,33.661011 0,33.661011c9.503998,1.005005 19.475983,1.869019 29.796997,2.582031c27.859985,1.972961 58.300064,2.964966 88.974075,3.303955l0.162964,0c51.702057,0.583008 104.105042,-0.652954 146.093048,-2.171997c0.38501,-0.011963 0.76001,-0.022949 1.14502,-0.034973c11.546967,-0.432007 22.276947,-0.864014 31.991974,-1.296021c23.037018,-1.015015 40.248016,-1.950012 48.527008,-2.382996c34.80603,-1.797974 2.767029,-24.636963 -8.360046,-33.661987zm-163.128998,12.960999c4.577026,0 8.278015,3.711975 8.278015,8.289001c0,4.575989 -3.700989,8.291016 -8.278015,8.291016c-4.575989,0 -8.291016,-3.715027 -8.291016,-8.291016c0.000061,-4.576965 3.715027,-8.289001 8.291016,-8.289001z" id="svg_7" stroke="null"/>
     </g>
    </g>
    <g opacity="0.5" id="svg_8" stroke="null">
     <g id="svg_9" stroke="null">
      <path fill="#DDD8C3" d="m505.755707,702.205994c2.142029,-6.031982 -8.395996,-5.531006 -8.395996,-5.531006s-285.823074,0.479004 -298.351089,1.017029c-6.470001,0.279968 -5.006989,0.422974 -8.121002,1.395996c-3.501984,2.529968 -6.617004,8.953003 10.312012,39.505981c0,0 0.584991,1.362 8.561981,2.020996c0.486023,0.039978 0.993011,0.163025 1.506012,0.221008c18.529999,2.172974 51.271042,2.98999 87.468063,3.083008l0.163025,0c52.484039,0.139954 112.149963,-1.238037 146.092987,-2.171997c0.38501,-0.012024 0.76001,-0.02301 1.14502,-0.035034c16.287994,-0.442993 26.341003,-0.781982 26.341003,-0.781982s2.210999,-0.223999 5.65097,-0.513977c5.44101,-0.458008 -0.619965,-0.757996 3.886017,-0.458008c14.59198,0.971008 16.929993,-11.481018 23.740997,-37.752014z" id="svg_10" stroke="null"/>
     </g>
    </g>
   </g>
   <path fill="#DDD8C3" d="m502.058685,708.427979" id="svg_11" stroke="null"/>
  </g>
  <g id="taps">
   <path fill="#5B5D5E" d="m318.445648,653.695984c-0.289978,8.880981 -13.573975,8.672974 -20.81897,7.187988c-6.952026,-1.404968 -19.154022,-2.737976 -19.154022,-2.737976c0.164001,2.756958 -1.645996,4.441956 -1.645996,4.441956c-0.107025,0.084045 -0.34201,0.169006 -0.675018,0.246033l0,20.960022c4.196991,0.494995 3.07901,6.429993 3.07901,6.429993l-17.120056,0c0,0 -1.117004,-5.934998 3.082031,-6.429993l0,-20.853027c-0.612,-0.101013 -1.065002,-0.226013 -1.221008,-0.354004c0,0 -1.811035,-1.685974 -1.646027,-4.442017c0,0 -12.204041,1.333008 -19.156036,2.738037c-7.244995,1.484985 -20.526001,1.692993 -20.817993,-7.187988l0.010986,-0.072998c0.113007,-8.858032 13.313995,-8.66803 20.612,-7.308044c6.968994,1.282043 19.166046,2.371033 19.166046,2.371033c-0.21402,-2.735046 1.57901,-4.450012 1.57901,-4.450012c0.488007,-0.460999 4.136017,-0.786987 6.531036,-0.664001c2.386993,-0.122986 6.339996,0.208984 6.828003,0.664001c0,0 1.794006,1.714966 1.580017,4.450012c0,0 12.19696,-1.088989 19.164978,-2.371033c7.298035,-1.359985 20.497986,-1.550964 20.613037,7.308044l0.008972,0.073975z" id="svg_12"/>
   <path fill="#5B5D5E" d="m480.745697,653.695984c-0.291016,8.880981 -13.573975,8.672974 -20.81897,7.187988c-6.953003,-1.404968 -19.154053,-2.737976 -19.154053,-2.737976c0.164001,2.756958 -1.645996,4.441956 -1.645996,4.441956c-0.106995,0.084045 -0.341003,0.169006 -0.67395,0.246033l0,20.960022c4.195984,0.494995 3.078979,6.429993 3.078979,6.429993l-17.119995,0c0,0 -1.117004,-5.934998 3.08197,-6.429993l0,-20.853027c-0.612976,-0.101013 -1.065002,-0.226013 -1.221008,-0.354004c0,0 -1.811951,-1.685974 -1.645996,-4.442017c0,0 -12.203979,1.333008 -19.156006,2.738037c-7.245972,1.484985 -20.526001,1.692993 -20.81897,-7.187988l0.012024,-0.072998c0.112976,-8.858032 13.313965,-8.66803 20.610962,-7.308044c6.968994,1.282043 19.166992,2.371033 19.166992,2.371033c-0.213989,-2.735046 1.579041,-4.450012 1.579041,-4.450012c0.487976,-0.460999 4.135986,-0.786987 6.531006,-0.664001c2.385986,-0.122986 6.339966,0.208984 6.827942,0.664001c0,0 1.794006,1.714966 1.580017,4.450012c0,0 12.197021,-1.088989 19.165039,-2.371033c7.296997,-1.359985 20.496948,-1.550964 20.612976,7.308044l0.007996,0.073975z" id="svg_13"/>
  </g>
  <g id="Layer_11">
   <path fill="url(#SVGID_1_)" d="m460.651703,648.111023c0,0 13.453979,-3.130005 17.52301,2.190002c0,0 1.562988,1.563965 0.937988,4.380981s0.940979,-6.257996 -18.460999,-6.570984z" id="svg_14"/>
   <path fill="url(#SVGID_2_)" d="m298.311676,648.111023c0,0 13.453979,-3.130005 17.521973,2.190002c0,0 1.564026,1.563965 0.939026,4.380981s0.942017,-6.257996 -18.460999,-6.570984z" id="svg_15"/>
   <path fill="url(#SVGID_3_)" d="m435.113678,645.25c0,0 5.25,-0.080017 4,5.960022s1.257019,-4.30304 -4,-5.960022z" id="svg_16"/>
   <path fill="url(#SVGID_4_)" d="m273.22467,645.25c0,0 5.25,-0.080017 4,5.960022s1.257019,-4.30304 -4,-5.960022z" id="svg_17"/>
  </g>
  <g id="Layer_3"/>
  <g id="Layer_7">
   <g id="svg_18">
    <g id="svg_19">
     <path fill="#7C4F2C" stroke="#7C4F2C" stroke-width="0.2835" stroke-miterlimit="10" d="m355.110077,312.72699c-23.749023,0 -43.015015,19.265991 -43.015015,43.014008c0,23.737 19.265991,43.003998 43.015015,43.003998c23.796997,0 43.005005,-19.266998 43.005005,-43.003998c0,-23.747986 -19.208008,-43.014008 -43.005005,-43.014008zm0,0c-23.749023,0 -43.015015,19.265991 -43.015015,43.014008c0,23.737 19.265991,43.003998 43.015015,43.003998c23.796997,0 43.005005,-19.266998 43.005005,-43.003998c0,-23.747986 -19.208008,-43.014008 -43.005005,-43.014008zm-216.395096,32.786011c-5.627975,0 -10.19397,4.565002 -10.19397,10.194s4.564987,10.194 10.19397,10.194c5.639984,0 10.192993,-4.565002 10.192993,-10.194s-4.553986,-10.194 -10.192993,-10.194zm28.873993,-108.682007c-5.626984,0 -10.192017,4.56601 -10.192017,10.194c0,5.626984 4.565033,10.192993 10.192017,10.192993c5.640015,0 10.192993,-4.56601 10.192993,-10.192993c0.001007,-5.627991 -4.552979,-10.194 -10.192993,-10.194zm187.521103,75.895996c-23.749023,0 -43.015015,19.265991 -43.015015,43.014008c0,23.737 19.265991,43.003998 43.015015,43.003998c23.796997,0 43.005005,-19.266998 43.005005,-43.003998c0,-23.747986 -19.208008,-43.014008 -43.005005,-43.014008zm0,0c-23.749023,0 -43.015015,19.265991 -43.015015,43.014008c0,23.737 19.265991,43.003998 43.015015,43.003998c23.796997,0 43.005005,-19.266998 43.005005,-43.003998c0,-23.747986 -19.208008,-43.014008 -43.005005,-43.014008zm-187.521103,-75.895996c-5.626984,0 -10.192017,4.56601 -10.192017,10.194c0,5.626984 4.565033,10.192993 10.192017,10.192993c5.640015,0 10.192993,-4.56601 10.192993,-10.192993c0.001007,-5.627991 -4.552979,-10.194 -10.192993,-10.194zm-28.873993,108.682007c-5.627975,0 -10.19397,4.565002 -10.19397,10.194s4.564987,10.194 10.19397,10.194c5.639984,0 10.192993,-4.565002 10.192993,-10.194s-4.553986,-10.194 -10.192993,-10.194zm0,0c-5.627975,0 -10.19397,4.565002 -10.19397,10.194s4.564987,10.194 10.19397,10.194c5.639984,0 10.192993,-4.565002 10.192993,-10.194s-4.553986,-10.194 -10.192993,-10.194zm28.873993,109.312988c-5.626984,0 -10.192017,4.565002 -10.192017,10.194c0,5.627014 4.565033,10.19101 10.192017,10.19101c5.640015,0 10.192993,-4.563995 10.192993,-10.19101c0.001007,-5.627991 -4.552979,-10.194 -10.192993,-10.194zm0,-217.994995c-5.626984,0 -10.192017,4.56601 -10.192017,10.194c0,5.626984 4.565033,10.192993 10.192017,10.192993c5.640015,0 10.192993,-4.56601 10.192993,-10.192993c0.001007,-5.627991 -4.552979,-10.194 -10.192993,-10.194zm187.404099,-106.931c-5.627014,0 -10.192017,4.565002 -10.192017,10.192993c0,5.628006 4.565002,10.193008 10.192017,10.193008c5.640015,0 10.192993,-4.565002 10.192993,-10.193008c0,-5.626984 -4.553955,-10.192993 -10.192993,-10.192993zm0.117004,182.826996c-23.749023,0 -43.015015,19.265991 -43.015015,43.014008c0,23.737 19.265991,43.003998 43.015015,43.003998c23.796997,0 43.005005,-19.266998 43.005005,-43.003998c0,-23.747986 -19.208008,-43.014008 -43.005005,-43.014008zm0,0c-23.749023,0 -43.015015,19.265991 -43.015015,43.014008c0,23.737 19.265991,43.003998 43.015015,43.003998c23.796997,0 43.005005,-19.266998 43.005005,-43.003998c0,-23.747986 -19.208008,-43.014008 -43.005005,-43.014008zm-187.521103,142.098999c-5.626984,0 -10.192017,4.565002 -10.192017,10.194c0,5.627014 4.565033,10.19101 10.192017,10.19101c5.640015,0 10.192993,-4.563995 10.192993,-10.19101c0.001007,-5.627991 -4.552979,-10.194 -10.192993,-10.194zm0,-217.994995c-5.626984,0 -10.192017,4.56601 -10.192017,10.194c0,5.626984 4.565033,10.192993 10.192017,10.192993c5.640015,0 10.192993,-4.56601 10.192993,-10.192993c0.001007,-5.627991 -4.552979,-10.194 -10.192993,-10.194zm187.404099,-106.931c-5.627014,0 -10.192017,4.565002 -10.192017,10.192993c0,5.628006 4.565002,10.193008 10.192017,10.193008c5.640015,0 10.192993,-4.565002 10.192993,-10.193008c0,-5.626984 -4.553955,-10.192993 -10.192993,-10.192993zm-216.278091,215.613007c-5.627975,0 -10.19397,4.565002 -10.19397,10.194s4.564987,10.194 10.19397,10.194c5.639984,0 10.192993,-4.565002 10.192993,-10.194s-4.553986,-10.194 -10.192993,-10.194zm0,0c-5.627975,0 -10.19397,4.565002 -10.19397,10.194s4.564987,10.194 10.19397,10.194c5.639984,0 10.192993,-4.565002 10.192993,-10.194s-4.553986,-10.194 -10.192993,-10.194zm28.873993,109.312988c-5.626984,0 -10.192017,4.565002 -10.192017,10.194c0,5.627014 4.565033,10.19101 10.192017,10.19101c5.640015,0 10.192993,-4.563995 10.192993,-10.19101c0.001007,-5.627991 -4.552979,-10.194 -10.192993,-10.194zm0,-217.994995c-5.626984,0 -10.192017,4.56601 -10.192017,10.194c0,5.626984 4.565033,10.192993 10.192017,10.192993c5.640015,0 10.192993,-4.56601 10.192993,-10.192993c0.001007,-5.627991 -4.552979,-10.194 -10.192993,-10.194zm77.58902,293.622986c-5.628998,0 -10.192993,4.564026 -10.192993,10.192017s4.563995,10.204956 10.192993,10.204956c5.639984,0 10.194,-4.576965 10.194,-10.204956s-4.554016,-10.192017 -10.194,-10.192017zm109.815079,-400.553986c-5.627014,0 -10.192017,4.565002 -10.192017,10.192993c0,5.628006 4.565002,10.193008 10.192017,10.193008c5.640015,0 10.192993,-4.565002 10.192993,-10.193008c0,-5.626984 -4.553955,-10.192993 -10.192993,-10.192993zm0.117004,182.826996c-23.749023,0 -43.015015,19.265991 -43.015015,43.014008c0,23.737 19.265991,43.003998 43.015015,43.003998c23.796997,0 43.005005,-19.266998 43.005005,-43.003998c0,-23.747986 -19.208008,-43.014008 -43.005005,-43.014008zm186.561066,-75.895996c-5.625977,0 -10.192017,4.56601 -10.192017,10.194c0,5.626984 4.56604,10.192993 10.192017,10.192993c5.640991,0 10.194031,-4.56601 10.194031,-10.192993c0.000977,-5.627991 -4.55304,-10.194 -10.194031,-10.194zm0,0c-5.625977,0 -10.192017,4.56601 -10.192017,10.194c0,5.626984 4.56604,10.192993 10.192017,10.192993c5.640991,0 10.194031,-4.56601 10.194031,-10.192993c0.000977,-5.627991 -4.55304,-10.194 -10.194031,-10.194zm-296.493164,293.622986c-5.628998,0 -10.192993,4.564026 -10.192993,10.192017s4.563995,10.204956 10.192993,10.204956c5.639984,0 10.194,-4.576965 10.194,-10.204956s-4.554016,-10.192017 -10.194,-10.192017zm-77.58902,-75.627991c-5.626984,0 -10.192017,4.565002 -10.192017,10.194c0,5.627014 4.565033,10.19101 10.192017,10.19101c5.640015,0 10.192993,-4.563995 10.192993,-10.19101c0.001007,-5.627991 -4.552979,-10.194 -10.192993,-10.194zm0,-217.994995c-5.626984,0 -10.192017,4.56601 -10.192017,10.194c0,5.626984 4.565033,10.192993 10.192017,10.192993c5.640015,0 10.192993,-4.56601 10.192993,-10.192993c0.001007,-5.627991 -4.552979,-10.194 -10.192993,-10.194zm187.404083,-106.931c-5.626984,0 -10.192017,4.565002 -10.192017,10.192993c0,5.628006 4.565033,10.193008 10.192017,10.193008c5.640045,0 10.192993,-4.565002 10.192993,-10.193008c0,-5.626984 -4.553955,-10.192993 -10.192993,-10.192993zm0.117035,182.826996c-23.749054,0 -43.015045,19.265991 -43.015045,43.014008c0,23.737 19.265991,43.003998 43.015045,43.003998c23.796967,0 43.004974,-19.266998 43.004974,-43.003998c0,-23.747986 -19.208008,-43.014008 -43.004974,-43.014008zm-216.395111,32.786011c-5.627975,0 -10.193985,4.565002 -10.193985,10.194s4.564987,10.194 10.193985,10.194c5.639984,0 10.192993,-4.565002 10.192993,-10.194s-4.553986,-10.194 -10.192993,-10.194zm0,0c-5.627975,0 -10.193985,4.565002 -10.193985,10.194s4.564987,10.194 10.193985,10.194c5.639984,0 10.192993,-4.565002 10.192993,-10.194s-4.553986,-10.194 -10.192993,-10.194zm28.873993,109.312988c-5.626984,0 -10.192017,4.565002 -10.192017,10.194c0,5.627014 4.565033,10.19101 10.192017,10.19101c5.640015,0 10.192993,-4.563995 10.192993,-10.19101c0.001007,-5.627991 -4.552979,-10.194 -10.192993,-10.194zm0,-217.994995c-5.626984,0 -10.192017,4.56601 -10.192017,10.194c0,5.626984 4.565033,10.192993 10.192017,10.192993c5.640015,0 10.192993,-4.56601 10.192993,-10.192993c0.001007,-5.627991 -4.552979,-10.194 -10.192993,-10.194zm77.58902,293.622986c-5.628998,0 -10.192993,4.564026 -10.192993,10.192017s4.563995,10.204956 10.192993,10.204956c5.639984,0 10.194,-4.576965 10.194,-10.204956s-4.554016,-10.192017 -10.194,-10.192017zm109.815063,30.976013c-5.626984,0 -10.192017,4.565002 -10.192017,10.19397c0,5.627014 4.565033,10.193054 10.192017,10.193054c5.640045,0 10.192993,-4.56604 10.192993,-10.193054c0,-5.628967 -4.553955,-10.19397 -10.192993,-10.19397zm0,-431.529999c-5.626984,0 -10.192017,4.565002 -10.192017,10.192993c0,5.628006 4.565033,10.193008 10.192017,10.193008c5.640045,0 10.192993,-4.565002 10.192993,-10.193008c0,-5.626984 -4.553955,-10.192993 -10.192993,-10.192993zm0.117035,182.826996c-23.749054,0 -43.015045,19.265991 -43.015045,43.014008c0,23.737 19.265991,43.003998 43.015045,43.003998c23.796967,0 43.004974,-19.266998 43.004974,-43.003998c0,-23.747986 -19.208008,-43.014008 -43.004974,-43.014008zm186.561005,-75.895996c-5.625977,0 -10.192017,4.56601 -10.192017,10.194c0,5.626984 4.56604,10.192993 10.192017,10.192993c5.640991,0 10.194031,-4.56601 10.194031,-10.192993c0.001038,-5.627991 -4.55304,-10.194 -10.194031,-10.194zm0,0c-5.625977,0 -10.192017,4.56601 -10.192017,10.194c0,5.626984 4.56604,10.192993 10.192017,10.192993c5.640991,0 10.194031,-4.56601 10.194031,-10.192993c0.001038,-5.627991 -4.55304,-10.194 -10.194031,-10.194zm-186.67804,324.598999c-5.626984,0 -10.192017,4.565002 -10.192017,10.19397c0,5.627014 4.565033,10.193054 10.192017,10.193054c5.640045,0 10.192993,-4.56604 10.192993,-10.193054c0,-5.628967 -4.553955,-10.19397 -10.192993,-10.19397zm-109.815063,-30.976013c-5.628998,0 -10.192993,4.564026 -10.192993,10.192017s4.563995,10.204956 10.192993,10.204956c5.639984,0 10.194,-4.576965 10.194,-10.204956s-4.554016,-10.192017 -10.194,-10.192017zm-77.58902,-75.627991c-5.626984,0 -10.192017,4.565002 -10.192017,10.194c0,5.627014 4.565033,10.19101 10.192017,10.19101c5.640015,0 10.192993,-4.563995 10.192993,-10.19101c0.001007,-5.627991 -4.552979,-10.194 -10.192993,-10.194zm0,-217.994995c-5.626984,0 -10.192017,4.56601 -10.192017,10.194c0,5.626984 4.565033,10.192993 10.192017,10.192993c5.640015,0 10.192993,-4.56601 10.192993,-10.192993c0.001007,-5.627991 -4.552979,-10.194 -10.192993,-10.194zm187.404083,-106.931c-5.626984,0 -10.192017,4.565002 -10.192017,10.192993c0,5.628006 4.565033,10.193008 10.192017,10.193008c5.640045,0 10.192993,-4.565002 10.192993,-10.193008c0,-5.626984 -4.553955,-10.192993 -10.192993,-10.192993zm0.117004,182.826996c-23.749023,0 -43.015015,19.265991 -43.015015,43.014008c0,23.737 19.265991,43.003998 43.015015,43.003998c23.796997,0 43.005005,-19.266998 43.005005,-43.003998c0,-23.747986 -19.208008,-43.014008 -43.005005,-43.014008zm-216.395081,32.786011c-5.627975,0 -10.193985,4.565002 -10.193985,10.194s4.564987,10.194 10.193985,10.194c5.639984,0 10.192993,-4.565002 10.192993,-10.194s-4.553986,-10.194 -10.192993,-10.194zm0,0c-5.627975,0 -10.193985,4.565002 -10.193985,10.194s4.564987,10.194 10.193985,10.194c5.639984,0 10.192993,-4.565002 10.192993,-10.194s-4.553986,-10.194 -10.192993,-10.194zm28.873993,109.312988c-5.626984,0 -10.192017,4.565002 -10.192017,10.194c0,5.627014 4.565033,10.19101 10.192017,10.19101c5.640015,0 10.192993,-4.563995 10.192993,-10.19101c0.001007,-5.627991 -4.552979,-10.194 -10.192993,-10.194zm0,-217.994995c-5.626984,0 -10.192017,4.56601 -10.192017,10.194c0,5.626984 4.565033,10.192993 10.192017,10.192993c5.640015,0 10.192993,-4.56601 10.192993,-10.192993c0.001007,-5.627991 -4.552979,-10.194 -10.192993,-10.194zm77.58902,293.622986c-5.628998,0 -10.192993,4.564026 -10.192993,10.192017s4.563995,10.204956 10.192993,10.204956c5.639984,0 10.194,-4.576965 10.194,-10.204956s-4.554016,-10.192017 -10.194,-10.192017zm109.815063,30.976013c-5.626984,0 -10.192017,4.565002 -10.192017,10.19397c0,5.627014 4.565033,10.193054 10.192017,10.193054c5.640045,0 10.192993,-4.56604 10.192993,-10.193054c0,-5.628967 -4.553955,-10.19397 -10.192993,-10.19397zm0,-431.529999c-5.626984,0 -10.192017,4.565002 -10.192017,10.192993c0,5.628006 4.565033,10.193008 10.192017,10.193008c5.640045,0 10.192993,-4.565002 10.192993,-10.193008c0,-5.626984 -4.553955,-10.192993 -10.192993,-10.192993zm0.117004,182.826996c-23.749023,0 -43.015015,19.265991 -43.015015,43.014008c0,23.737 19.265991,43.003998 43.015015,43.003998c23.796997,0 43.005005,-19.266998 43.005005,-43.003998c0,-23.747986 -19.208008,-43.014008 -43.005005,-43.014008zm110.749023,217.72699c-5.629028,0 -10.192017,4.564026 -10.192017,10.192017s4.562988,10.204956 10.192017,10.204956c5.640015,0 10.192993,-4.576965 10.192993,-10.204956s-4.552979,-10.192017 -10.192993,-10.192017zm75.812012,-78.090973c-5.625977,0 -10.192017,4.562988 -10.192017,10.192017c0,5.627991 4.56604,10.194 10.192017,10.194c5.640991,0 10.194031,-4.56601 10.194031,-10.194c0.001038,-5.628021 -4.55304,-10.192017 -10.194031,-10.192017zm0,-215.532013c-5.625977,0 -10.192017,4.56601 -10.192017,10.194c0,5.626984 4.56604,10.192993 10.192017,10.192993c5.640991,0 10.194031,-4.56601 10.194031,-10.192993c0.001038,-5.627991 -4.55304,-10.194 -10.194031,-10.194zm0,0c-5.625977,0 -10.192017,4.56601 -10.192017,10.194c0,5.626984 4.56604,10.192993 10.192017,10.192993c5.640991,0 10.194031,-4.56601 10.194031,-10.192993c0.001038,-5.627991 -4.55304,-10.194 -10.194031,-10.194zm0,215.532013c-5.625977,0 -10.192017,4.562988 -10.192017,10.192017c0,5.627991 4.56604,10.194 10.192017,10.194c5.640991,0 10.194031,-4.56601 10.194031,-10.194c0.001038,-5.628021 -4.55304,-10.192017 -10.194031,-10.192017zm-75.812012,78.090973c-5.629028,0 -10.192017,4.564026 -10.192017,10.192017s4.562988,10.204956 10.192017,10.204956c5.640015,0 10.192993,-4.576965 10.192993,-10.204956s-4.552979,-10.192017 -10.192993,-10.192017zm-110.866028,30.976013c-5.626984,0 -10.192017,4.565002 -10.192017,10.19397c0,5.627014 4.565033,10.193054 10.192017,10.193054c5.640045,0 10.192993,-4.56604 10.192993,-10.193054c0,-5.628967 -4.553955,-10.19397 -10.192993,-10.19397zm-109.815063,-30.976013c-5.628998,0 -10.192993,4.564026 -10.192993,10.192017s4.563995,10.204956 10.192993,10.204956c5.639984,0 10.194,-4.576965 10.194,-10.204956s-4.554016,-10.192017 -10.194,-10.192017zm-77.58902,-75.627991c-5.626984,0 -10.192017,4.565002 -10.192017,10.194c0,5.627014 4.565033,10.19101 10.192017,10.19101c5.640015,0 10.192993,-4.563995 10.192993,-10.19101c0.001007,-5.627991 -4.552979,-10.194 -10.192993,-10.194zm0,-217.994995c-5.626984,0 -10.192017,4.56601 -10.192017,10.194c0,5.626984 4.565033,10.192993 10.192017,10.192993c5.640015,0 10.192993,-4.56601 10.192993,-10.192993c0.001007,-5.627991 -4.552979,-10.194 -10.192993,-10.194zm187.404083,-106.931c-5.626984,0 -10.192017,4.565002 -10.192017,10.192993c0,5.628006 4.565033,10.193008 10.192017,10.193008c5.640045,0 10.192993,-4.565002 10.192993,-10.193008c0,-5.626984 -4.553955,-10.192993 -10.192993,-10.192993zm0.117004,182.826996c-23.749023,0 -43.015015,19.265991 -43.015015,43.014008c0,23.737 19.265991,43.003998 43.015015,43.003998c23.796997,0 43.005005,-19.266998 43.005005,-43.003998c0,-23.747986 -19.208008,-43.014008 -43.005005,-43.014008zm-216.395081,32.786011c-5.627975,0 -10.193985,4.565002 -10.193985,10.194s4.564987,10.194 10.193985,10.194c5.639984,0 10.192993,-4.565002 10.192993,-10.194s-4.553986,-10.194 -10.192993,-10.194zm0,0c-5.627975,0 -10.193985,4.565002 -10.193985,10.194s4.564987,10.194 10.193985,10.194c5.639984,0 10.192993,-4.565002 10.192993,-10.194s-4.553986,-10.194 -10.192993,-10.194zm28.873993,109.312988c-5.626984,0 -10.192017,4.565002 -10.192017,10.194c0,5.627014 4.565033,10.19101 10.192017,10.19101c5.640015,0 10.192993,-4.563995 10.192993,-10.19101c0.001007,-5.627991 -4.552979,-10.194 -10.192993,-10.194zm0,-217.994995c-5.626984,0 -10.192017,4.56601 -10.192017,10.194c0,5.626984 4.565033,10.192993 10.192017,10.192993c5.640015,0 10.192993,-4.56601 10.192993,-10.192993c0.001007,-5.627991 -4.552979,-10.194 -10.192993,-10.194zm77.58902,293.622986c-5.628998,0 -10.192993,4.564026 -10.192993,10.192017s4.563995,10.204956 10.192993,10.204956c5.639984,0 10.194,-4.576965 10.194,-10.204956s-4.554016,-10.192017 -10.194,-10.192017zm109.815063,30.976013c-5.626984,0 -10.192017,4.565002 -10.192017,10.19397c0,5.627014 4.565002,10.193054 10.192017,10.193054c5.640015,0 10.192993,-4.56604 10.192993,-10.193054c0,-5.628967 -4.553955,-10.19397 -10.192993,-10.19397zm0,-431.529999c-5.626984,0 -10.192017,4.565002 -10.192017,10.192993c0,5.628006 4.565002,10.193008 10.192017,10.193008c5.640015,0 10.192993,-4.565002 10.192993,-10.193008c0,-5.626984 -4.553955,-10.192993 -10.192993,-10.192993zm0.117004,182.826996c-23.749023,0 -43.015015,19.265991 -43.015015,43.014008c0,23.737 19.265991,43.003998 43.015015,43.003998c23.796997,0 43.005005,-19.266998 43.005005,-43.003998c0,-23.747986 -19.208008,-43.014008 -43.005005,-43.014008zm110.749023,217.72699c-5.629028,0 -10.192017,4.564026 -10.192017,10.192017s4.562988,10.204956 10.192017,10.204956c5.640015,0 10.192993,-4.576965 10.192993,-10.204956s-4.552979,-10.192017 -10.192993,-10.192017zm0,-370.265991c-5.629028,0 -10.192017,4.565994 -10.192017,10.192993c0,5.628006 4.562988,10.193008 10.192017,10.193008c5.640015,0 10.192993,-4.564011 10.192993,-10.193008c0,-5.626999 -4.552979,-10.192993 -10.192993,-10.192993zm75.812012,292.174988c-5.625977,0 -10.192017,4.562988 -10.192017,10.192017c0,5.627991 4.56604,10.194 10.192017,10.194c5.640991,0 10.194031,-4.56601 10.194031,-10.194c0.001038,-5.628021 -4.55304,-10.192017 -10.194031,-10.192017zm0,-215.532013c-5.625977,0 -10.192017,4.56601 -10.192017,10.194c0,5.626984 4.56604,10.192993 10.192017,10.192993c5.640991,0 10.194031,-4.56601 10.194031,-10.192993c0.001038,-5.627991 -4.55304,-10.194 -10.194031,-10.194zm28.608032,108.682007c-5.627014,0 -10.192993,4.565002 -10.192993,10.194s4.565979,10.194 10.192993,10.194c5.640015,0 10.192993,-4.565002 10.192993,-10.194s-4.553955,-10.194 -10.192993,-10.194zm0,0c-5.627014,0 -10.192993,4.565002 -10.192993,10.194s4.565979,10.194 10.192993,10.194c5.640015,0 10.192993,-4.565002 10.192993,-10.194s-4.553955,-10.194 -10.192993,-10.194zm-28.608032,-108.682007c-5.625977,0 -10.192017,4.56601 -10.192017,10.194c0,5.626984 4.56604,10.192993 10.192017,10.192993c5.640991,0 10.194031,-4.56601 10.194031,-10.192993c0.001038,-5.627991 -4.55304,-10.194 -10.194031,-10.194zm0,215.532013c-5.625977,0 -10.192017,4.562988 -10.192017,10.192017c0,5.627991 4.56604,10.194 10.192017,10.194c5.640991,0 10.194031,-4.56601 10.194031,-10.194c0.001038,-5.628021 -4.55304,-10.192017 -10.194031,-10.192017zm-75.812012,78.091003c-5.629028,0 -10.192017,4.563965 -10.192017,10.192017s4.562988,10.204895 10.192017,10.204895c5.640015,0 10.192993,-4.576904 10.192993,-10.204895s-4.552979,-10.192017 -10.192993,-10.192017zm-110.866028,30.975952c-5.626984,0 -10.192017,4.565002 -10.192017,10.19397c0,5.627075 4.565002,10.193115 10.192017,10.193115c5.640015,0 10.192993,-4.56604 10.192993,-10.193115c0,-5.628906 -4.553955,-10.19397 -10.192993,-10.19397zm-109.815063,-30.975952c-5.628998,0 -10.192993,4.563965 -10.192993,10.192017s4.563995,10.204895 10.192993,10.204895c5.639984,0 10.194,-4.576904 10.194,-10.204895s-4.554016,-10.192017 -10.194,-10.192017zm-77.58902,-75.628021c-5.626984,0 -10.192017,4.565002 -10.192017,10.194c0,5.627014 4.565033,10.19101 10.192017,10.19101c5.640015,0 10.192993,-4.563995 10.192993,-10.19101c0.001007,-5.627991 -4.552979,-10.194 -10.192993,-10.194zm0,-217.994995c-5.626984,0 -10.192017,4.56601 -10.192017,10.194c0,5.626984 4.565033,10.192993 10.192017,10.192993c5.640015,0 10.192993,-4.56601 10.192993,-10.192993c0.001007,-5.627991 -4.552979,-10.194 -10.192993,-10.194zm187.404083,-106.931c-5.626984,0 -10.192017,4.565002 -10.192017,10.192993c0,5.628006 4.565002,10.193008 10.192017,10.193008c5.640015,0 10.192993,-4.565002 10.192993,-10.193008c0,-5.626984 -4.553955,-10.192993 -10.192993,-10.192993zm0.117004,182.826996c-23.749023,0 -43.015015,19.265991 -43.015015,43.014008c0,23.737 19.265991,43.003998 43.015015,43.003998c23.796997,0 43.005005,-19.266998 43.005005,-43.003998c0,-23.747986 -19.208008,-43.014008 -43.005005,-43.014008zm110.749023,-152.538986c-5.629028,0 -10.192017,4.565994 -10.192017,10.192993c0,5.628006 4.562988,10.193008 10.192017,10.193008c5.640015,0 10.192993,-4.564011 10.192993,-10.193008c0,-5.626999 -4.552979,-10.192993 -10.192993,-10.192993zm-327.144119,185.324997c-5.627991,0 -10.194,4.565002 -10.194,10.194s4.565018,10.194 10.194,10.194c5.639984,0 10.192993,-4.565002 10.192993,-10.194s-4.553986,-10.194 -10.192993,-10.194zm487.633133,144.937012c-16.335022,-5.52301 -43.492981,-17.945007 -43.492981,-17.945007c3.690002,-5.52298 1.927002,-11.315002 1.927002,-11.315002c-1.052002,-2.97699 -5.360046,-3.095001 -5.360046,-3.095001l-3.687988,6.575012l-2.813965,-1.600006c2.14801,-4.636993 -4.530029,-7.062988 -6.025024,-7.509003c14.351013,-30.428009 22.419006,-64.382996 22.419006,-100.263c0,-36.161987 -8.172974,-70.395996 -22.757019,-100.988007c2.322998,-0.875 6.854004,-3.198975 4.973999,-7.168976l2.812988,-1.600006l3.817017,6.619995c0,0 4.415039,-0.164001 5.348999,-3.093994c0,0 1.764038,-5.791992 -2.031006,-11.373016c0,0 27.205017,-12.306992 43.55304,-17.934998c17.057983,-5.918991 45.326965,-21.319992 34.945984,-40.247986l-0.059021,-0.222c-11.255981,-18.49501 -39.195984,-2.042999 -52.834961,9.761993c-13.019043,11.371994 -37.31604,28.770004 -37.31604,28.770004c-2.98999,-5.96701 -8.828979,-7.403 -8.828979,-7.403c-3.093018,-0.490005 -5.369995,3.093994 -5.369995,3.093994l3.817993,6.574005l-2.812988,1.598999c-2.429016,-3.53801 -6.574036,-0.945007 -8.559998,0.666c-39.03302,-56.653 -102.30603,-95.302002 -174.850067,-100.987999c0.442047,-2.428001 0.664001,-7.507011 -3.702972,-7.834007l0,-3.257996l7.625,0c0,0 2.089996,-3.923004 0,-6.188004c0,0 -4.146027,-4.414009 -10.823029,-3.911995c0,0 2.93103,-29.763 6.234009,-46.705002c3.434021,-17.725002 4.205048,-49.916001 -17.385986,-50.418l-0.221954,0c-21.64801,0.502 -21.367035,32.916002 -17.947021,50.628c3.315948,16.954002 6.234955,46.716003 6.234955,46.716003c-6.679016,-0.444 -10.812012,3.911995 -10.812012,3.911995c-1.995941,2.428001 0,6.187988 0,6.187988l7.567047,0l0,3.258011c-4.203979,0.327995 -4.098053,5.079002 -3.700989,7.612991c-72.439056,5.639999 -135.59613,44.171013 -174.64212,100.64901l-0.046021,0c-2.043976,-1.645996 -6.013977,-4.028 -8.395996,-0.548996l-2.871979,-1.600006l3.86499,-6.632004c0,0 -2.371002,-3.748993 -5.347992,-3.082993c0,0 -5.90802,1.378006 -8.838013,7.391983c0,0 -24.286972,-17.385986 -37.31797,-28.700989c-13.637993,-11.875 -41.13501,-28.606995 -52.343987,-10.15799l-0.105022,0.162979c-10.380001,18.986023 17.771008,34.99501 34.830013,40.855011c16.347,5.628006 43.621994,17.934998 43.621994,17.934998c-3.759003,5.582001 -2.043007,11.384003 -2.043007,11.384003c1.098984,2.919006 5.360008,3.083008 5.360008,3.083008l3.747971,-6.562012l2.872009,1.645996c-1.763,3.654007 1.984985,5.861023 4.35498,6.853027c-14.676956,30.638977 -22.908981,64.978973 -22.908981,101.256989c0,36.546021 8.395035,71.166016 23.305984,102.026001c0.046021,0 0.046021,0 0.046021,0s0,0.05899 0.05899,0.162994c-0.05899,-0.057983 -0.105011,-0.104004 -0.105011,-0.162994c-0.781982,0.222015 -8.55899,2.533997 -6.187988,7.565002l-2.81398,1.601013l-3.817978,-6.574005c0,0 -4.413033,0.162994 -5.34803,3.03598c0,0 -1.715996,5.851013 2.042984,11.373016c0,0 -27.216972,12.317993 -43.562973,17.945007c-17.058983,5.849976 -45.327995,21.36795 -34.946987,40.248932l0.10498,0.222046c11.209011,18.437012 39.150043,1.984985 52.789036,-9.772034c13.029968,-11.372955 37.315964,-28.758942 37.315964,-28.758942c2.988998,6.013 8.839005,7.390991 8.839005,7.390991c3.095001,0.547974 5.359985,-3.142029 5.359985,-3.142029l-3.819,-6.515961l2.813995,-1.611023c3.035004,4.425995 8.897003,-0.875 9.609009,-1.599976c-0.992004,-1.424011 -1.878998,-2.97702 -2.872986,-4.472015c1.717987,2.485992 2.931976,4.425995 2.931976,4.425995s0,0 -0.059998,0.046021c39.093018,56.478943 102.307068,94.962952 174.793152,100.543945c-0.38501,1.927002 -1.215057,8.174988 3.643982,8.559998l0,3.257996l-7.61203,0c0,0 -2.103027,3.910034 0,6.177002c0,0 4.145996,4.366028 10.823029,3.923035c0,0 -2.93103,29.763 -6.247009,46.587952c-3.421021,17.900024 -4.190979,49.975037 17.397003,50.582031l0.222961,0c21.635986,-0.606995 21.35498,-33.067017 17.934021,-50.629028c-3.30304,-16.998962 -6.234009,-46.763 -6.234009,-46.763c6.679016,0.443054 10.823975,-3.922974 10.823975,-3.922974c1.985046,-2.429993 0,-6.177002 0,-6.177002l-7.565979,0l0,-3.258972c4.692993,-0.38501 3.981049,-6.292053 3.596008,-8.39502c72.929993,-5.731995 136.529999,-44.825012 175.447052,-102.026001c0.888,0.82901 6.573975,5.966034 9.552002,1.494019l2.824951,1.645996l-3.76001,6.633026c0,0 2.312012,3.701965 5.301025,3.140991c0,0 5.966003,-1.377014 8.780029,-7.507996c0,0 24.345947,17.502991 37.434998,28.770966c13.579956,11.862976 41.018982,28.652954 52.273987,10.100952l0.174988,-0.222961c10.378967,-18.981995 -17.890015,-34.826996 -34.960999,-40.793976zm-480.265152,-27.719025c-0.38501,-0.770996 -0.723999,-1.483002 -1.050995,-2.14801c0.384979,0.712006 0.770996,1.377014 1.166992,2.10202l-0.115997,0.04599zm-7.368011,-94.635986c-6.830994,0 -12.376984,-5.54599 -12.376984,-12.388s5.54599,-12.388 12.376984,-12.388c6.84201,0 12.388,5.54599 12.388,12.388s-5.54599,12.388 -12.388,12.388zm327.14415,-210.100998c6.842987,0 12.389984,5.54599 12.389984,12.388c0,6.843002 -5.546997,12.388992 -12.389984,12.388992c-6.830048,0 -12.377045,-5.54599 -12.377045,-12.388992c0,-6.84201 5.546997,-12.388 12.377045,-12.388zm-92.312042,1.248001c58.356018,5.582001 109.253021,36.547012 141.503021,81.769989c-9.608002,3.865021 -4.472015,11.81601 -4.472015,11.81601l-5.96698,3.480011c0,0 -3.80603,-5.52301 -6.35199,-4.146027c-2.195007,1.156006 0.665985,7.625 0.665985,7.625l-73.537018,42.455017c0,0 -2.768005,-3.539001 -4.190979,-2.651001c-1.16803,0.712006 0.38501,5.138 0.38501,5.138l-5.079041,2.919006c-4.752014,-8.174011 -12.925964,-2.371002 -16.731995,0.442993c-0.221985,0.164001 -0.38501,0.328003 -0.549011,0.444c-7.297974,-7.018005 -16.346008,-12.26001 -26.341003,-15.131989c0,-0.106018 0.058044,-0.223022 0.058044,-0.386017c0.665955,-4.531006 1.82196,-14.911011 -7.835022,-15.016998l-0.057983,-5.848999c0,0 4.576965,-0.888 4.635986,-2.208008c0.057983,-1.716003 -4.354004,-2.322998 -4.354004,-2.322998l0,-84.909988c0,0 7.005035,-0.782013 6.947021,-3.258011c-0.106018,-2.871994 -6.738037,-3.419998 -6.738037,-3.419998l0,-6.901001c0,0.001007 9.505005,0.434006 8.01001,-9.888992zm30.088013,196.709991c0,26.669006 -21.588989,48.31601 -48.257019,48.31601c-26.715973,0 -48.362,-21.647003 -48.362,-48.31601c0,-26.656982 21.646027,-48.304016 48.362,-48.304016c26.66803,0.000031 48.257019,21.647034 48.257019,48.304016zm-48.642029,-228.246994c6.843048,0 12.389008,5.546005 12.389008,12.388992s-5.545959,12.389008 -12.389008,12.389008c-6.830017,0 -12.375977,-5.546005 -12.375977,-12.389008s5.546021,-12.388992 12.375977,-12.388992zm-109.559082,30.873001c6.843994,0 12.390045,5.54599 12.390045,12.388c0,6.843002 -5.546051,12.388992 -12.390045,12.388992c-6.829987,0 -12.375,-5.54599 -12.375,-12.388992c0,-6.84201 5.545013,-12.388 12.375,-12.388zm90.457092,0.664001c-1.482971,10.322998 8.009033,9.889999 8.009033,9.889999l0,6.901001c0,0 -6.67804,0.547989 -6.735016,3.419998c-0.10498,2.475998 6.898956,3.257996 6.898956,3.257996l0,84.910004c0,0 -4.412964,0.606995 -4.35498,2.322998c0.046997,1.319 4.63501,2.208008 4.63501,2.208008l0,5.848999c-9.713989,0.106018 -8.51001,10.485016 -7.950012,15.016998c-9.994019,2.813019 -19.044006,8.01001 -26.562988,14.85199c-3.747955,-2.97699 -11.757996,-8.335999 -16.452026,-0.385986l-5.078979,-2.872009c0,0 1.494995,-4.412994 0.38501,-5.136993c-1.425018,-0.876007 -4.19101,2.651001 -4.19101,2.651001l-73.536072,-42.454987c0,0 2.872986,-6.457001 0.652985,-7.671021c-2.53299,-1.319 -6.339996,4.132996 -6.339996,4.132996l-5.96701,-3.467987c0,0 5.243011,-8.231995 -4.858002,-11.932983c32.295013,-45.106018 83.204102,-75.967026 141.445099,-81.490021zm-168.302094,75.393997c6.843018,0 12.389008,5.546005 12.389008,12.388992s-5.54599,12.388 -12.389008,12.388c-6.829987,0 -12.376007,-5.54599 -12.376007,-12.388s5.546021,-12.388992 12.376007,-12.388992zm0,242.771011c-6.829987,0 -12.376007,-5.54599 -12.376007,-12.386993c0,-6.844025 5.54599,-12.389008 12.376007,-12.389008c6.843018,0 12.389008,5.544983 12.389008,12.389008c0,6.840973 -5.54599,12.386993 -12.389008,12.386993zm25.642029,-40.457001l-5.966003,3.536987c0,0 -3.971008,-7.787994 -11.479004,-2.765991c-11.593994,-25.05899 -18.050995,-53 -18.050995,-82.422974c0,-29.319 6.39801,-57.144012 17.93399,-82.154022c8.338013,6.959015 12.809998,-1.71698 12.809998,-1.71698l5.964996,3.42099c0,0 -2.811981,6.083008 -0.384979,7.56601c2.104004,1.330994 6.294983,-4.355011 6.294983,-4.355011l73.536102,42.454987c0,0 -1.703979,4.146027 -0.221985,4.962006c1.214996,0.606995 4.261993,-2.919006 4.261993,-2.919006l5.07901,2.919006c-4.309021,7.683014 3.140991,11.77002 7.718018,13.800995c-1.541016,5.582001 -2.312012,11.38501 -2.312012,17.39801c0,5.406006 0.664978,10.661011 1.880005,15.73999c-4.530029,1.821014 -13.090027,6.013 -8.512024,14.02301l-5.020996,2.97699c0,0 -3.093994,-3.537994 -4.248993,-2.97699c-1.494995,0.81601 0.162994,4.962006 0.162994,4.962006l-73.537109,42.454987c0,0 -4.203003,-5.674988 -6.294006,-4.414001c-2.428986,1.541992 0.386017,7.509003 0.386017,7.509003zm51.946991,116.097015c-6.830002,0 -12.376984,-5.546997 -12.376984,-12.400085c0,-6.829895 5.546997,-12.376892 12.376984,-12.376892c6.84201,0 12.389038,5.546997 12.389038,12.376892c0,6.853088 -5.547058,12.400085 -12.389038,12.400085zm90.772095,-1.705017c-58.019989,-5.465088 -108.765076,-36.104004 -141.062103,-80.92804c7.835999,-4.039001 3.199005,-11.268005 3.199005,-11.268005l5.968018,-3.362976c0,0 3.806976,5.511993 6.350983,4.134003c2.208008,-1.21402 -0.617981,-7.671997 -0.617981,-7.671997l73.548096,-42.45401c0,0 2.697998,3.585999 4.133972,2.651001c1.167023,-0.666992 -0.384979,-5.07901 -0.384979,-5.07901l5.078979,-2.98999c4.692993,7.846985 12.480042,2.812988 16.346985,-0.162994c7.730072,7.448975 17.281006,13.147003 27.940033,16.18399c-0.560028,5.078003 -0.279999,12.855011 8.056976,12.972992l0.059998,5.847992c0,0 -4.588989,0.831024 -4.635956,2.209015c-0.059021,1.716003 4.353973,2.322998 4.353973,2.322998l0,84.850952c0,0 -7.017975,0.830078 -6.958008,3.374023c0.117035,2.872986 6.736053,3.305054 6.736053,3.305054l0,6.899963c0,-0.000977 -9.048065,-0.385925 -8.114044,9.165039zm19.042969,32.671021c-6.830017,0 -12.375977,-5.547058 -12.375977,-12.389038c0,-6.843018 5.545959,-12.389954 12.375977,-12.389954c6.843048,0 12.389008,5.546936 12.389008,12.389954c-0.001007,6.84198 -5.546967,12.389038 -12.389008,12.389038zm110.866058,-30.966003c-6.830048,0 -12.377045,-5.546997 -12.377045,-12.400085c0,-6.829895 5.546997,-12.376892 12.377045,-12.376892c6.842987,0 12.389984,5.546997 12.389984,12.376892c0,6.853088 -5.546997,12.400085 -12.389984,12.400085zm-92.032013,-1.705017c0.934998,-9.551086 -8.114014,-9.166077 -8.114014,-9.166077l0,-6.899963c0,0 6.67804,-0.432007 6.726013,-3.304932c0.116028,-2.544067 -6.901001,-3.374084 -6.901001,-3.374084l0,-84.850983c0,0 4.426025,-0.606995 4.367004,-2.322998c-0.057983,-1.377991 -4.635986,-2.208984 -4.635986,-2.208984l0,-5.848022c8.5,-0.116974 8.60498,-8.11499 8.11499,-13.14798c11.09198,-3.257019 20.924011,-9.330017 28.817017,-17.386993c3.980957,2.978973 11.324951,7.345978 15.78595,-0.163025l5.195007,2.873016c0,0 -1.552948,4.471985 -0.442993,5.18399c1.436066,0.888 4.14502,-2.649994 4.14502,-2.649994l73.597015,42.454987c0,0 -2.873016,6.411011 -0.667023,7.684021c2.533997,1.260986 6.292969,-4.145996 6.292969,-4.145996l5.967987,3.478973c0,0 -4.75296,7.286011 3.538086,11.314026c-32.252045,45.54895 -83.265045,76.794067 -141.786011,82.481018l-0.000031,0zm149.057953,-112.570007l-5.955017,-3.423004c0,0 2.919067,-6.128998 0.386047,-7.623993c-2.102051,-1.261017 -6.233978,4.367004 -6.233978,4.367004l-73.549011,-42.395996c0,0 1.716003,-4.14502 0.175964,-4.975006c-1.167969,-0.548004 -4.204926,2.872986 -4.204926,2.872986l-5.079071,-2.872986c4.694061,-8.335999 -4.635986,-12.481018 -8.942993,-14.244019c-0.046997,-0.059998 -0.162964,-0.059998 -0.221985,-0.10498c0.549011,-2.207001 0.992004,-4.58902 1.33197,-6.900024c0,-0.280975 0.058044,-0.560974 0.058044,-0.781982c0.162964,-1.985992 0.268982,-3.971008 0.268982,-6.014008c0,-1.71698 -0.059998,-3.363983 -0.223022,-5.07901c-0.267975,-4.145996 -0.992004,-8.116974 -2.042969,-12.038971c4.529968,-1.879028 12.645996,-6.072021 8.231018,-13.906006l5.077942,-2.989014c0,0 3.037048,3.537994 4.194031,2.873016c1.552979,-0.770996 -0.164001,-4.916016 -0.164001,-4.916016l73.536011,-42.454987c0,0 4.190948,5.686981 6.292938,4.414001c2.430054,-1.542023 -0.384949,-7.555023 -0.384949,-7.555023l5.96698,-3.432983c0,0 4.309082,8.348999 12.470032,1.997009c11.373047,24.893982 17.725037,52.554993 17.725037,81.710999c0,28.756989 -6.176025,56.09198 -17.223022,80.71698c-7.450989,-4.975006 -11.490051,2.756012 -11.490051,2.756012zm18.786072,36.173004c-6.830017,0 -12.375,-5.546997 -12.375,-12.389984c0,-6.841003 5.544983,-12.388 12.375,-12.388c6.843994,0 12.390015,5.546997 12.390015,12.388c-0.000061,6.842987 -5.546021,12.389984 -12.390015,12.389984zm0,-215.532013c-6.830017,0 -12.375,-5.54599 -12.375,-12.388s5.544983,-12.389008 12.375,-12.389008c6.843994,0 12.390015,5.54599 12.390015,12.389008s-5.546021,12.388 -12.390015,12.388zm16.231995,96.294006c0,-6.84201 5.546021,-12.388 12.375977,-12.388c6.843018,0 12.389038,5.54599 12.389038,12.388s-5.546021,12.388 -12.389038,12.388c-6.830017,0 -12.375977,-5.54599 -12.375977,-12.388zm22.56897,0c0,-5.627991 -4.554016,-10.194 -10.192993,-10.194c-5.627014,0 -10.192993,4.565002 -10.192993,10.194s4.565979,10.194 10.192993,10.194c5.639038,0 10.192993,-4.56601 10.192993,-10.194zm-38.800964,-118.876007c-5.625977,0 -10.192017,4.56601 -10.192017,10.194c0,5.626984 4.56604,10.192993 10.192017,10.192993c5.640991,0 10.194031,-4.56601 10.194031,-10.192993c0.000977,-5.627991 -4.55304,-10.194 -10.194031,-10.194zm0,215.532013c-5.625977,0 -10.192017,4.562988 -10.192017,10.192017c0,5.627991 4.56604,10.194 10.192017,10.194c5.640991,0 10.194031,-4.56601 10.194031,-10.194c0.000977,-5.628021 -4.55304,-10.192017 -10.194031,-10.192017zm-75.812012,-271.788025c5.639984,0 10.192963,-4.563995 10.192963,-10.192993c0,-5.626999 -4.554016,-10.193008 -10.192963,-10.193008c-5.629059,0 -10.192047,4.56601 -10.192047,10.193008c-0.000977,5.627991 4.562988,10.192993 10.192047,10.192993zm0,349.879028c-5.629059,0 -10.192047,4.563965 -10.192047,10.192017s4.562988,10.204895 10.192047,10.204895c5.639984,0 10.192963,-4.576904 10.192963,-10.204895s-4.552979,-10.192017 -10.192963,-10.192017zm-110.749054,-217.72702c-23.749023,0 -43.015015,19.265991 -43.015015,43.014008c0,23.737 19.265991,43.003998 43.015015,43.003998c23.796997,0 43.005005,-19.266998 43.005005,-43.003998c0,-23.747986 -19.208008,-43.014008 -43.005005,-43.014008zm-0.117004,-162.439987c5.640015,0 10.192993,-4.565002 10.192993,-10.193008c0,-5.627991 -4.553986,-10.192993 -10.192993,-10.192993c-5.627014,0 -10.192017,4.565002 -10.192017,10.192993c-0.000946,5.628006 4.565094,10.193008 10.192017,10.193008zm0,411.14296c-5.627014,0 -10.192017,4.565002 -10.192017,10.19397c0,5.627014 4.565002,10.193054 10.192017,10.193054c5.640015,0 10.192993,-4.56604 10.192993,-10.193054c0,-5.628967 -4.553925,-10.19397 -10.192993,-10.19397zm-109.559082,-380.270981c5.640991,0 10.194,-4.565002 10.194,-10.192993c0,-5.626999 -4.553986,-10.193008 -10.194,-10.193008c-5.626007,0 -10.191986,4.565002 -10.191986,10.193008c0,5.627991 4.56601,10.192993 10.191986,10.192993zm-0.255981,349.294968c-5.628998,0 -10.192993,4.564026 -10.192993,10.192017s4.563995,10.204956 10.192993,10.204956c5.639984,0 10.194,-4.576965 10.194,-10.204956s-4.554016,-10.192017 -10.194,-10.192017zm-77.58902,-273.235992c5.640015,0 10.192993,-4.565994 10.192993,-10.192978c0,-5.627991 -4.553986,-10.194 -10.192993,-10.194c-5.626984,0 -10.192017,4.56601 -10.192017,10.194c0.000031,5.627014 4.565033,10.192978 10.192017,10.192978zm0,197.608002c-5.626984,0 -10.192017,4.565002 -10.192017,10.194c0,5.627045 4.565033,10.19101 10.192017,10.19101c5.640015,0 10.192993,-4.563965 10.192993,-10.19101c0.001007,-5.627991 -4.552979,-10.194 -10.192993,-10.194zm-28.873993,-109.312988c-5.627975,0 -10.193985,4.565033 -10.193985,10.194s4.565002,10.194 10.193985,10.194c5.639984,0 10.192993,-4.565002 10.192993,-10.194s-4.553986,-10.194 -10.192993,-10.194zm0,0c-5.627975,0 -10.193985,4.565033 -10.193985,10.194s4.565002,10.194 10.193985,10.194c5.639984,0 10.192993,-4.565002 10.192993,-10.194s-4.553986,-10.194 -10.192993,-10.194zm216.395081,-32.786011c-23.749023,0 -43.015015,19.265991 -43.015015,43.014008c0,23.737 19.265991,43.004028 43.015015,43.004028c23.796997,0 43.005005,-19.267029 43.005005,-43.004028c0,-23.747955 -19.208008,-43.014008 -43.005005,-43.014008zm-0.117004,-182.826981c-5.626984,0 -10.192017,4.565002 -10.192017,10.192993c0,5.628006 4.565033,10.193008 10.192017,10.193008c5.640045,0 10.192993,-4.565002 10.192993,-10.193008c0,-5.626984 -4.553925,-10.192993 -10.192993,-10.192993zm-187.404083,106.931c-5.626984,0 -10.192017,4.56601 -10.192017,10.194c0,5.626984 4.565033,10.192978 10.192017,10.192978c5.640015,0 10.192993,-4.565994 10.192993,-10.192978c0.001007,-5.627991 -4.552979,-10.194 -10.192993,-10.194zm0,217.99498c-5.626984,0 -10.192017,4.565002 -10.192017,10.194c0,5.627045 4.565033,10.19101 10.192017,10.19101c5.640015,0 10.192993,-4.563965 10.192993,-10.19101c0.001007,-5.627991 -4.552979,-10.194 -10.192993,-10.194zm77.58902,75.627991c-5.628998,0 -10.192993,4.564026 -10.192993,10.192017s4.563995,10.204956 10.192993,10.204956c5.639984,0 10.194,-4.576965 10.194,-10.204956s-4.554016,-10.192017 -10.194,-10.192017zm109.815063,30.976013c-5.626984,0 -10.192017,4.565002 -10.192017,10.19397c0,5.627014 4.565033,10.193054 10.192017,10.193054c5.640045,0 10.192993,-4.56604 10.192993,-10.193054c0,-5.628967 -4.553925,-10.19397 -10.192993,-10.19397zm110.866058,-30.976013c-5.629059,0 -10.192047,4.564026 -10.192047,10.192017s4.562988,10.204956 10.192047,10.204956c5.639984,0 10.192963,-4.576965 10.192963,-10.204956s-4.552979,-10.192017 -10.192963,-10.192017zm75.812012,-78.090973c-5.625977,0 -10.192017,4.563019 -10.192017,10.192047c0,5.627991 4.56604,10.194 10.192017,10.194c5.640991,0 10.194031,-4.56601 10.194031,-10.194c0.000977,-5.628021 -4.55304,-10.192047 -10.194031,-10.192047zm0,-215.531998c-5.625977,0 -10.192017,4.56601 -10.192017,10.194c0,5.626984 4.56604,10.192978 10.192017,10.192978c5.640991,0 10.194031,-4.565994 10.194031,-10.192978c0.000977,-5.627991 -4.55304,-10.194 -10.194031,-10.194zm28.607971,108.681992c-5.627014,0 -10.192993,4.565033 -10.192993,10.194s4.565979,10.194 10.192993,10.194c5.640015,0 10.192993,-4.565002 10.192993,-10.194s-4.553955,-10.194 -10.192993,-10.194zm0,0c-5.627014,0 -10.192993,4.565033 -10.192993,10.194s4.565979,10.194 10.192993,10.194c5.640015,0 10.192993,-4.565002 10.192993,-10.194s-4.553955,-10.194 -10.192993,-10.194zm-28.607971,-108.681992c-5.625977,0 -10.192017,4.56601 -10.192017,10.194c0,5.626984 4.56604,10.192978 10.192017,10.192978c5.640991,0 10.194031,-4.565994 10.194031,-10.192978c0.000977,-5.627991 -4.55304,-10.194 -10.194031,-10.194zm0,215.531998c-5.625977,0 -10.192017,4.563019 -10.192017,10.192047c0,5.627991 4.56604,10.194 10.192017,10.194c5.640991,0 10.194031,-4.56601 10.194031,-10.194c0.000977,-5.628021 -4.55304,-10.192047 -10.194031,-10.192047zm-75.812012,78.090973c-5.629059,0 -10.192047,4.564026 -10.192047,10.192017s4.562988,10.204956 10.192047,10.204956c5.639984,0 10.192963,-4.576965 10.192963,-10.204956s-4.552979,-10.192017 -10.192963,-10.192017zm-110.749054,-217.72699c-23.749023,0 -43.015015,19.265991 -43.015015,43.014008c0,23.737 19.265991,43.004028 43.015015,43.004028c23.796997,0 43.005005,-19.267029 43.005005,-43.004028c0,-23.747955 -19.208008,-43.014008 -43.005005,-43.014008zm-0.117004,-182.826981c-5.626984,0 -10.192017,4.565002 -10.192017,10.192993c0,5.628006 4.565033,10.193008 10.192017,10.193008c5.640045,0 10.192993,-4.565002 10.192993,-10.193008c0,-5.626984 -4.553925,-10.192993 -10.192993,-10.192993zm0,431.529984c-5.626984,0 -10.192017,4.565002 -10.192017,10.19397c0,5.627014 4.565033,10.193054 10.192017,10.193054c5.640045,0 10.192993,-4.56604 10.192993,-10.193054c0,-5.628967 -4.553925,-10.19397 -10.192993,-10.19397zm-109.815063,-30.976013c-5.628998,0 -10.192993,4.564026 -10.192993,10.192017s4.563995,10.204956 10.192993,10.204956c5.639984,0 10.194,-4.576965 10.194,-10.204956s-4.554016,-10.192017 -10.194,-10.192017zm-77.58902,-293.622971c-5.626984,0 -10.192017,4.56601 -10.192017,10.194c0,5.626984 4.565033,10.192978 10.192017,10.192978c5.640015,0 10.192993,-4.565994 10.192993,-10.192978c0.001007,-5.627991 -4.552979,-10.194 -10.192993,-10.194zm0,217.99498c-5.626984,0 -10.192017,4.565002 -10.192017,10.194c0,5.627045 4.565033,10.19101 10.192017,10.19101c5.640015,0 10.192993,-4.563965 10.192993,-10.19101c0.001007,-5.627991 -4.552979,-10.194 -10.192993,-10.194zm-28.873993,-109.312988c-5.627975,0 -10.193985,4.565033 -10.193985,10.194s4.565002,10.194 10.193985,10.194c5.639984,0 10.192993,-4.565002 10.192993,-10.194s-4.553986,-10.194 -10.192993,-10.194zm0,0c-5.627975,0 -10.193985,4.565033 -10.193985,10.194s4.565002,10.194 10.193985,10.194c5.639984,0 10.192993,-4.565002 10.192993,-10.194s-4.553986,-10.194 -10.192993,-10.194zm216.395081,-32.786011c-23.749023,0 -43.015015,19.265991 -43.015015,43.014008c0,23.737 19.265991,43.004028 43.015015,43.004028c23.796997,0 43.005005,-19.267029 43.005005,-43.004028c0,-23.747955 -19.208008,-43.014008 -43.005005,-43.014008zm-0.117004,-182.826981c-5.626984,0 -10.192017,4.565002 -10.192017,10.192993c0,5.628006 4.565033,10.193008 10.192017,10.193008c5.640045,0 10.192993,-4.565002 10.192993,-10.193008c0,-5.626984 -4.553925,-10.192993 -10.192993,-10.192993zm-187.404083,106.931c-5.626984,0 -10.192017,4.56601 -10.192017,10.194c0,5.626984 4.565033,10.192978 10.192017,10.192978c5.640015,0 10.192993,-4.565994 10.192993,-10.192978c0.001007,-5.627991 -4.552979,-10.194 -10.192993,-10.194zm0,217.99498c-5.626984,0 -10.192017,4.565002 -10.192017,10.194c0,5.627045 4.565033,10.19101 10.192017,10.19101c5.640015,0 10.192993,-4.563965 10.192993,-10.19101c0.001007,-5.627991 -4.552979,-10.194 -10.192993,-10.194zm77.58902,75.627991c-5.628998,0 -10.192993,4.564026 -10.192993,10.192017s4.563995,10.204956 10.192993,10.204956c5.639984,0 10.194,-4.576965 10.194,-10.204956s-4.554016,-10.192017 -10.194,-10.192017zm109.815063,30.976013c-5.626984,0 -10.192017,4.565002 -10.192017,10.19397c0,5.627014 4.565033,10.193054 10.192017,10.193054c5.640045,0 10.192993,-4.56604 10.192993,-10.193054c0,-5.628967 -4.553925,-10.19397 -10.192993,-10.19397zm110.866058,-30.976013c-5.629059,0 -10.192047,4.564026 -10.192047,10.192017s4.562988,10.204956 10.192047,10.204956c5.639984,0 10.192963,-4.576965 10.192963,-10.204956s-4.552979,-10.192017 -10.192963,-10.192017zm75.812012,-293.622971c-5.625977,0 -10.192017,4.56601 -10.192017,10.194c0,5.626984 4.56604,10.192978 10.192017,10.192978c5.640991,0 10.194031,-4.565994 10.194031,-10.192978c0.000977,-5.627991 -4.55304,-10.194 -10.194031,-10.194zm0,0c-5.625977,0 -10.192017,4.56601 -10.192017,10.194c0,5.626984 4.56604,10.192978 10.192017,10.192978c5.640991,0 10.194031,-4.565994 10.194031,-10.192978c0.000977,-5.627991 -4.55304,-10.194 -10.194031,-10.194zm-75.812012,293.622971c-5.629059,0 -10.192047,4.564026 -10.192047,10.192017s4.562988,10.204956 10.192047,10.204956c5.639984,0 10.192963,-4.576965 10.192963,-10.204956s-4.552979,-10.192017 -10.192963,-10.192017zm-110.749023,-217.72699c-23.749054,0 -43.015045,19.265991 -43.015045,43.014008c0,23.737 19.265991,43.004028 43.015045,43.004028c23.796967,0 43.004974,-19.267029 43.004974,-43.004028c0,-23.747955 -19.208008,-43.014008 -43.004974,-43.014008zm-0.117035,-182.826981c-5.626984,0 -10.192017,4.565002 -10.192017,10.192993c0,5.628006 4.565033,10.193008 10.192017,10.193008c5.640045,0 10.192993,-4.565002 10.192993,-10.193008c0,-5.626984 -4.553925,-10.192993 -10.192993,-10.192993zm0,431.529984c-5.626984,0 -10.192017,4.565002 -10.192017,10.19397c0,5.627014 4.565033,10.193054 10.192017,10.193054c5.640045,0 10.192993,-4.56604 10.192993,-10.193054c0,-5.628967 -4.553925,-10.19397 -10.192993,-10.19397zm-109.815063,-30.976013c-5.628998,0 -10.192993,4.564026 -10.192993,10.192017s4.563995,10.204956 10.192993,10.204956c5.639984,0 10.194,-4.576965 10.194,-10.204956s-4.554016,-10.192017 -10.194,-10.192017zm-77.58902,-293.622971c-5.626984,0 -10.192017,4.56601 -10.192017,10.194c0,5.626984 4.565033,10.192978 10.192017,10.192978c5.640015,0 10.192993,-4.565994 10.192993,-10.192978c0.001007,-5.627991 -4.552979,-10.194 -10.192993,-10.194zm0,217.99498c-5.626984,0 -10.192017,4.565002 -10.192017,10.194c0,5.627045 4.565033,10.19101 10.192017,10.19101c5.640015,0 10.192993,-4.563965 10.192993,-10.19101c0.001007,-5.627991 -4.552979,-10.194 -10.192993,-10.194zm-28.873993,-109.312988c-5.627975,0 -10.193985,4.565033 -10.193985,10.194s4.565002,10.194 10.193985,10.194c5.639999,0 10.192993,-4.565002 10.192993,-10.194s-4.553986,-10.194 -10.192993,-10.194zm0,0c-5.627975,0 -10.193985,4.565033 -10.193985,10.194s4.565002,10.194 10.193985,10.194c5.639999,0 10.192993,-4.565002 10.192993,-10.194s-4.553986,-10.194 -10.192993,-10.194zm216.395111,-32.786011c-23.749054,0 -43.015045,19.265991 -43.015045,43.014008c0,23.737 19.265991,43.004028 43.015045,43.004028c23.796967,0 43.004974,-19.267029 43.004974,-43.004028c0,-23.747955 -19.208008,-43.014008 -43.004974,-43.014008zm-0.117035,-182.826981c-5.626984,0 -10.192017,4.565002 -10.192017,10.192993c0,5.628006 4.565033,10.193008 10.192017,10.193008c5.640045,0 10.192993,-4.565002 10.192993,-10.193008c0,-5.626984 -4.553925,-10.192993 -10.192993,-10.192993zm-187.404083,106.931c-5.626984,0 -10.192017,4.56601 -10.192017,10.194c0,5.626984 4.565033,10.192978 10.192017,10.192978c5.640015,0 10.192993,-4.565994 10.192993,-10.192978c0.001007,-5.627991 -4.552979,-10.194 -10.192993,-10.194zm0,217.99498c-5.626984,0 -10.192017,4.565002 -10.192017,10.194c0,5.627045 4.565033,10.19101 10.192017,10.19101c5.640015,0 10.192993,-4.563965 10.192993,-10.19101c0.001007,-5.627991 -4.552979,-10.194 -10.192993,-10.194zm77.58902,75.627991c-5.628998,0 -10.192993,4.564026 -10.192993,10.192017s4.563995,10.204956 10.192993,10.204956c5.639984,0 10.194,-4.576965 10.194,-10.204956s-4.554016,-10.192017 -10.194,-10.192017zm109.815063,30.976013c-5.626984,0 -10.192017,4.565002 -10.192017,10.19397c0,5.627014 4.565033,10.193054 10.192017,10.193054c5.640045,0 10.192993,-4.56604 10.192993,-10.193054c0,-5.628967 -4.553925,-10.19397 -10.192993,-10.19397zm186.67807,-324.598984c-5.625977,0 -10.192017,4.56601 -10.192017,10.194c0,5.626984 4.56604,10.192978 10.192017,10.192978c5.640991,0 10.194031,-4.565994 10.194031,-10.192978c0.000977,-5.627991 -4.55304,-10.194 -10.194031,-10.194zm0,0c-5.625977,0 -10.192017,4.56601 -10.192017,10.194c0,5.626984 4.56604,10.192978 10.192017,10.192978c5.640991,0 10.194031,-4.565994 10.194031,-10.192978c0.000977,-5.627991 -4.55304,-10.194 -10.194031,-10.194zm-186.561035,75.895981c-23.749054,0 -43.015045,19.265991 -43.015045,43.014008c0,23.737 19.265991,43.004028 43.015045,43.004028c23.796967,0 43.004974,-19.267029 43.004974,-43.004028c0,-23.747955 -19.208008,-43.014008 -43.004974,-43.014008zm-0.117035,-182.826981c-5.626984,0 -10.191986,4.565002 -10.191986,10.192993c0,5.628006 4.565002,10.193008 10.191986,10.193008c5.640045,0 10.193024,-4.565002 10.193024,-10.193008c0,-5.626984 -4.553955,-10.192993 -10.193024,-10.192993zm0,431.529984c-5.626984,0 -10.191986,4.565002 -10.191986,10.19397c0,5.627014 4.565002,10.193054 10.191986,10.193054c5.640045,0 10.193024,-4.56604 10.193024,-10.193054c0,-5.628967 -4.553955,-10.19397 -10.193024,-10.19397zm-109.815063,-30.976013c-5.628998,0 -10.192993,4.564026 -10.192993,10.192017s4.563995,10.204956 10.192993,10.204956c5.639984,0 10.194,-4.576965 10.194,-10.204956s-4.554016,-10.192017 -10.194,-10.192017zm-77.589005,-293.622971c-5.626999,0 -10.192032,4.56601 -10.192032,10.194c0,5.626984 4.565033,10.192978 10.192032,10.192978c5.639999,0 10.192978,-4.565994 10.192978,-10.192978c0.001007,-5.627991 -4.552979,-10.194 -10.192978,-10.194zm0,217.99498c-5.626999,0 -10.192032,4.565002 -10.192032,10.194c0,5.627045 4.565033,10.19101 10.192032,10.19101c5.639999,0 10.192978,-4.563965 10.192978,-10.19101c0.001007,-5.627991 -4.552979,-10.194 -10.192978,-10.194zm-28.874008,-109.312988c-5.627975,0 -10.193985,4.565033 -10.193985,10.194s4.565002,10.194 10.193985,10.194c5.639999,0 10.193008,-4.565002 10.193008,-10.194s-4.554001,-10.194 -10.193008,-10.194zm0,0c-5.627975,0 -10.193985,4.565033 -10.193985,10.194s4.565002,10.194 10.193985,10.194c5.639999,0 10.193008,-4.565002 10.193008,-10.194s-4.554001,-10.194 -10.193008,-10.194zm216.278076,-215.612991c-5.626984,0 -10.191986,4.565002 -10.191986,10.192993c0,5.628006 4.565002,10.193008 10.191986,10.193008c5.640045,0 10.193024,-4.565002 10.193024,-10.193008c0,-5.626984 -4.553955,-10.192993 -10.193024,-10.192993zm-187.404068,106.931c-5.626999,0 -10.192032,4.56601 -10.192032,10.194c0,5.626984 4.565033,10.192978 10.192032,10.192978c5.639999,0 10.192978,-4.565994 10.192978,-10.192978c0.001007,-5.627991 -4.552979,-10.194 -10.192978,-10.194zm0,217.99498c-5.626999,0 -10.192032,4.565002 -10.192032,10.194c0,5.627045 4.565033,10.19101 10.192032,10.19101c5.639999,0 10.192978,-4.563965 10.192978,-10.19101c0.001007,-5.627991 -4.552979,-10.194 -10.192978,-10.194zm187.521103,-142.098999c-23.749054,0 -43.015045,19.265991 -43.015045,43.014008c0,23.737 19.265991,43.004028 43.015045,43.004028c23.796967,0 43.004974,-19.267029 43.004974,-43.004028c0,-23.747955 -19.208008,-43.014008 -43.004974,-43.014008zm186.561035,-75.895981c-5.625977,0 -10.192017,4.56601 -10.192017,10.194c0,5.626984 4.56604,10.192978 10.192017,10.192978c5.640991,0 10.194031,-4.565994 10.194031,-10.192978c0.000977,-5.627991 -4.55304,-10.194 -10.194031,-10.194zm0,0c-5.625977,0 -10.192017,4.56601 -10.192017,10.194c0,5.626984 4.56604,10.192978 10.192017,10.192978c5.640991,0 10.194031,-4.565994 10.194031,-10.192978c0.000977,-5.627991 -4.55304,-10.194 -10.194031,-10.194zm-186.561035,75.895981c-23.749054,0 -43.015045,19.265991 -43.015045,43.014008c0,23.737 19.265991,43.004028 43.015045,43.004028c23.796967,0 43.004974,-19.267029 43.004974,-43.004028c0,-23.747955 -19.208008,-43.014008 -43.004974,-43.014008zm-0.117035,-182.826981c-5.626984,0 -10.191986,4.565002 -10.191986,10.192993c0,5.628006 4.565002,10.193008 10.191986,10.193008c5.640045,0 10.193024,-4.565002 10.193024,-10.193008c0,-5.626984 -4.553955,-10.192993 -10.193024,-10.192993zm-187.404068,106.931c-5.626999,0 -10.192032,4.56601 -10.192032,10.194c0,5.626984 4.565033,10.192978 10.192032,10.192978c5.639999,0 10.192978,-4.565994 10.192978,-10.192978c0.001007,-5.627991 -4.552979,-10.194 -10.192978,-10.194zm0,217.99498c-5.626999,0 -10.192032,4.565002 -10.192032,10.194c0,5.627045 4.565033,10.19101 10.192032,10.19101c5.639999,0 10.192978,-4.563965 10.192978,-10.19101c0.001007,-5.627991 -4.552979,-10.194 -10.192978,-10.194zm-28.874008,-109.312988c-5.627975,0 -10.193985,4.565033 -10.193985,10.194s4.565002,10.194 10.193985,10.194c5.639999,0 10.193008,-4.565002 10.193008,-10.194s-4.554001,-10.194 -10.193008,-10.194zm0,0c-5.627975,0 -10.193985,4.565033 -10.193985,10.194s4.565002,10.194 10.193985,10.194c5.639999,0 10.193008,-4.565002 10.193008,-10.194s-4.554001,-10.194 -10.193008,-10.194zm28.874008,-108.681992c-5.626999,0 -10.192032,4.56601 -10.192032,10.194c0,5.626984 4.565033,10.192978 10.192032,10.192978c5.639999,0 10.192978,-4.565994 10.192978,-10.192978c0.001007,-5.627991 -4.552979,-10.194 -10.192978,-10.194zm0,217.99498c-5.626999,0 -10.192032,4.565002 -10.192032,10.194c0,5.627045 4.565033,10.19101 10.192032,10.19101c5.639999,0 10.192978,-4.563965 10.192978,-10.19101c0.001007,-5.627991 -4.552979,-10.194 -10.192978,-10.194zm187.521103,-142.098999c-23.749054,0 -43.015045,19.265991 -43.015045,43.014008c0,23.737 19.265991,43.004028 43.015045,43.004028c23.796967,0 43.004974,-19.267029 43.004974,-43.004028c0,-23.747955 -19.208008,-43.014008 -43.004974,-43.014008zm0,0c-23.749054,0 -43.015045,19.265991 -43.015045,43.014008c0,23.737 19.265991,43.004028 43.015045,43.004028c23.796967,0 43.004974,-19.267029 43.004974,-43.004028c0,-23.747955 -19.208008,-43.014008 -43.004974,-43.014008zm-187.521103,-75.895981c-5.626999,0 -10.192032,4.56601 -10.192032,10.194c0,5.626984 4.565033,10.192978 10.192032,10.192978c5.639999,0 10.192978,-4.565994 10.192978,-10.192978c0.001007,-5.627991 -4.552979,-10.194 -10.192978,-10.194zm0,217.99498c-5.626999,0 -10.192032,4.565002 -10.192032,10.194c0,5.627045 4.565033,10.19101 10.192032,10.19101c5.639999,0 10.192978,-4.563965 10.192978,-10.19101c0.001007,-5.627991 -4.552979,-10.194 -10.192978,-10.194zm-28.874008,-109.312988c-5.627975,0 -10.193985,4.565033 -10.193985,10.194s4.565002,10.194 10.193985,10.194c5.639999,0 10.193008,-4.565002 10.193008,-10.194s-4.554001,-10.194 -10.193008,-10.194zm28.874008,-108.681992c-5.626999,0 -10.192032,4.56601 -10.192032,10.194c0,5.626984 4.565033,10.192978 10.192032,10.192978c5.639999,0 10.192978,-4.565994 10.192978,-10.192978c0.001007,-5.627991 -4.552979,-10.194 -10.192978,-10.194zm187.521103,75.895981c-23.749054,0 -43.015045,19.265991 -43.015045,43.014008c0,23.737 19.265991,43.004028 43.015045,43.004028c23.796967,0 43.004974,-19.267029 43.004974,-43.004028c0,-23.747955 -19.208008,-43.014008 -43.004974,-43.014008zm0,0c-23.749054,0 -43.015045,19.265991 -43.015045,43.014008c0,23.737 19.265991,43.004028 43.015045,43.004028c23.796967,0 43.004974,-19.267029 43.004974,-43.004028c0,-23.747955 -19.208008,-43.014008 -43.004974,-43.014008zm-187.521103,-75.895981c-5.626999,0 -10.192032,4.56601 -10.192032,10.194c0,5.626984 4.565033,10.192978 10.192032,10.192978c5.639999,0 10.192978,-4.565994 10.192978,-10.192978c0.001007,-5.627991 -4.552979,-10.194 -10.192978,-10.194z" id="svg_20"/>
     <g opacity="0.3" id="svg_21">
      <path d="m367.033112,316.14801c-1.09198,0.416992 -1.875,1.270996 -2.35199,2.559998c-0.536011,1.449005 -0.804016,3.701996 -0.804016,6.757996l0.028992,1.608002l0,0.833008l0.030029,0.743988l0.14801,2.144012c0.237976,1.488007 0.505981,2.510986 0.803955,3.06601s0.764038,0.942993 1.399048,1.16098l-0.834045,1.846008c-0.436951,-0.278015 -0.961975,-0.462006 -1.576965,-0.550995c-0.61499,-0.08902 -1.519043,-0.134003 -2.708984,-0.134003c-0.655029,0 -1.256042,0.059998 -1.802002,0.178986s-1.146057,0.308014 -1.801025,0.565002l-0.715027,-1.398987l0.328003,-0.179016c0.933044,-0.574982 1.399048,-1.17099 1.399048,-1.78598c0,-0.457001 -0.219055,-0.972015 -0.655029,-1.548004c-0.179016,-0.218018 -0.401978,-0.451019 -0.669983,-0.700012c-0.268005,-0.247986 -0.591003,-0.520996 -0.968018,-0.819l-0.387024,-0.328003l-1.220947,-0.981995c-1.469055,-1.19101 -2.590027,-2.263 -3.364014,-3.214996c-0.77301,-0.953003 -1.389038,-1.994995 -1.846008,-3.126007c-0.158997,1.032013 -0.237976,2.213013 -0.237976,3.542023l0.029968,0.981995l0,0.833984l0.059998,0.744019c0,0.654999 0.033997,1.22998 0.104004,1.72699c0.069031,0.496002 0.231995,1.041992 0.491028,1.636993c0.415955,0.953003 0.828003,1.632996 1.234985,2.040009c0.406006,0.406982 0.927002,0.688995 1.562012,0.847992l-0.356995,1.696991l-0.565002,-0.177979c-0.695007,-0.199005 -1.240051,-0.347015 -1.638,-0.447021c-0.395996,-0.098999 -0.754028,-0.148987 -1.071045,-0.148987c-0.277954,0 -0.764954,0.049988 -1.458984,0.148987l-1.130981,0.179016l-0.179016,0.029999c-0.45697,0.098999 -0.705017,0.158997 -0.744019,0.178986c-0.237976,0.119019 -0.416992,0.198029 -0.53595,0.238007l-0.625,-1.78598c0.674988,-0.337006 1.205994,-0.789001 1.592957,-1.354004c0.387024,-0.565002 0.640015,-1.313995 0.759033,-2.248016l0.118958,-0.803986l0.059998,-0.654999l0.179016,-1.697021l0,-0.207977l0,-1.489014c0,-0.734009 -0.005005,-1.437988 -0.015015,-2.113983c-0.010986,-0.674011 -0.073975,-1.417999 -0.192993,-2.232025c-0.237976,-1.825989 -0.540955,-3.17099 -0.907959,-4.033997s-0.91803,-1.582001 -1.652039,-2.15799l0.536011,-1.221008l0.535034,0.08902l0.595947,0.118988l0.565002,0.118988l0.774048,0.08902l1.10199,0.148987c0.316956,0.040009 0.654968,0.074005 1.011963,0.104004c0.356995,0.029999 0.754028,0.045013 1.19104,0.045013c0.653992,0 1.283997,-0.060028 1.889954,-0.179016s1.206055,-0.287994 1.802002,-0.506012l0.654053,1.370026c-0.15802,0.079987 -0.308044,0.207977 -0.446045,0.386993c-0.338013,0.397003 -0.505981,0.803986 -0.505981,1.220001c0,0.674988 0.455994,1.428986 1.369019,2.263l0.922974,0.773987l0.505981,0.447021l1.459045,1.220001l1.190979,0.952972l0.119019,0.149017c0.375977,0.337982 0.687988,0.713989 0.937988,1.130981c0.247986,0.417023 0.570007,1.10202 0.968018,2.054016l0.296997,0.684998l0.029968,-1.10199c0,-3.253998 -0.232971,-5.621002 -0.700012,-7.100006c-0.466003,-1.477997 -1.294983,-2.565002 -2.484985,-3.26001l0.505981,-1.221008c1.052002,0.338013 2.094055,0.506012 3.126038,0.506012c0.395996,0 0.799011,-0.019989 1.205994,-0.059998c0.406006,-0.040009 0.947021,-0.098999 1.622009,-0.178986l1.221008,-0.238007l0.685974,1.222992z" id="svg_22"/>
     </g>
     <g opacity="0.3" id="svg_23">
      <path d="m336.113068,346.94101c-0.737,0.416992 -1.327026,0.984009 -1.770996,1.701996c-0.445007,0.718018 -0.841003,1.756012 -1.187988,3.114014l-0.062012,0.253998l-0.375977,1.621002l-0.458008,1.806l-0.188049,1.087982l-0.041992,0.300995l-0.166992,0.810028l-0.083008,0.439972c-0.041992,0.417023 -0.061951,0.741028 -0.061951,0.973022c0,0.123993 0,0.207977 0,0.255005c0,0.60199 0.064941,1.064972 0.197998,1.388977c0.131958,0.324005 0.343994,0.60202 0.635986,0.833008l-0.270996,1.25l-0.812012,-0.139008c-0.763977,-0.123993 -1.379028,-0.204987 -1.843994,-0.242981c-0.466003,-0.037994 -0.934998,-0.058014 -1.406982,-0.058014c-0.403015,0 -0.792053,0.041992 -1.167053,0.127014c-0.375,0.083984 -0.784973,0.196991 -1.229004,0.334991l-0.311951,-1.25c0.305969,-0.216003 0.527954,-0.477997 0.666992,-0.786987c0.138977,-0.309021 0.208008,-0.725006 0.208008,-1.25c0,-0.417023 -0.033997,-0.841003 -0.104004,-1.27301c-0.070007,-0.432007 -0.195007,-1.011017 -0.375,-1.735992c-0.209045,-0.726013 -0.416992,-1.328003 -0.626038,-1.806l-0.083008,-0.278015l-0.125,-0.277985c-0.138977,0.263 -0.235962,0.478973 -0.291992,0.64798l-0.270996,0.833008l-0.083984,0.300995l-0.270996,0.856995c-0.05603,0.184998 -0.098022,0.339996 -0.125,0.463013c-0.098022,0.355011 -0.159973,0.595001 -0.187988,0.717987l-0.062012,0.417023c-0.069031,0.431976 -0.114014,0.748993 -0.135986,0.948975c-0.020996,0.201019 -0.031006,0.409027 -0.031006,0.625c0,0.479004 0.187988,0.935028 0.562012,1.366028l0.166992,0.207977l-0.375,1.343018c-0.416992,-0.216003 -0.837036,-0.378021 -1.260986,-0.486023c-0.424011,-0.107971 -0.899048,-0.161987 -1.42804,-0.161987c-0.166016,0 -0.325989,0 -0.479004,0c-0.151978,0 -0.339966,0.015015 -0.562012,0.04599c-0.44397,0 -0.909973,0.078003 -1.395996,0.232025c-0.139954,0.04599 -0.416992,0.153992 -0.833984,0.323975l-0.291992,-1.504974c0.263977,-0.185028 0.455017,-0.413025 0.572998,-0.683014c0.117981,-0.269989 0.177002,-0.644012 0.177002,-1.122986c0,-0.64801 -0.117981,-1.473999 -0.354004,-2.478027l-0.312012,-1.435974l-0.062012,-0.253998l-0.312988,-1.15802l-0.395996,-1.458984l-0.125,-0.417023l-0.062012,-0.207977l-0.604004,-1.76001l-0.166992,-0.485992l-0.145996,-0.509003c-0.222961,-0.709991 -0.479004,-1.257996 -0.770996,-1.644012c-0.291992,-0.385986 -0.659973,-0.678986 -1.104004,-0.880005l0.416016,-1.15799c0.291992,0.154999 0.580017,0.265991 0.86499,0.335999c0.283997,0.069 0.648987,0.104004 1.093994,0.104004l0.833984,0.04599l0.354004,0.02301c0.305054,0 0.527039,0 0.666016,0c0.291992,0 0.572998,-0.006989 0.845032,-0.02301c0.270996,-0.014984 0.537964,-0.04599 0.802002,-0.092987s0.520996,-0.09201 0.770996,-0.139008s0.5,-0.115997 0.75,-0.208008l0.5,0.996002c-0.611023,0.571014 -0.916992,1.296997 -0.916992,2.177002c0,0.154022 0.006958,0.324005 0.020996,0.509003c0.013977,0.184998 0.041992,0.371002 0.083984,0.556l0.333008,1.76001c0.235962,1.065002 0.440979,1.89801 0.61499,2.5c0.172974,0.60199 0.377991,1.181 0.614014,1.737l0.291992,-0.880005l0.333008,-1.342987l0.145996,-0.509003l0.291992,-1.019012l0.125,-0.53299c0.138977,-0.770996 0.208008,-1.397003 0.208008,-1.875c0,-0.664001 -0.223022,-1.242004 -0.666992,-1.737l-0.25,-0.253998l0.437988,-0.926025c0.708984,0.340027 1.666992,0.509003 2.875977,0.509003l0.666992,-0.04599l1.438049,-0.253998l0.166992,-0.02301l0.541992,-0.09198l0.333008,0.971985c-0.208008,0.201019 -0.361023,0.412994 -0.458008,0.636993c-0.098022,0.223999 -0.145996,0.506012 -0.145996,0.845001c0,0.371002 0.062012,0.873016 0.187988,1.505005l0.083984,0.463013l0.166016,0.695007l0.187988,0.694c0.291016,1.095978 0.609985,2.099976 0.958008,3.009979c0.19397,-0.725983 0.341003,-1.328003 0.437988,-1.806l0.083984,-0.371002l0.188049,-1.065002l0.104004,-0.740997l0.125,-0.740997c0.041992,-0.216003 0.06897,-0.440002 0.083984,-0.67099c0.013977,-0.231018 0.020996,-0.471008 0.020996,-0.718018c0,-0.292999 -0.014038,-0.500977 -0.041992,-0.625c-0.125,-0.770996 -0.312012,-1.289001 -0.562012,-1.550995l-0.75,-0.578979l-0.104004,-0.093018l-0.291016,-0.230988l0.479004,-0.925995c0.778015,0.263 1.473022,0.393982 2.083984,0.393982l1.063049,-0.04599c0.609985,0 1.013977,-0.015015 1.208008,-0.04599s0.465942,-0.131012 0.812988,-0.301025l0.557983,1.27301z" id="svg_24"/>
     </g>
     <g opacity="0.3" id="svg_25">
      <path d="m397.269073,357.778015l-0.020996,0.57901c-0.153015,1.450989 -0.799988,2.617004 -1.937988,3.497009c-0.319031,0.263 -0.684998,0.470978 -1.093994,0.625c-0.410034,0.153992 -0.97699,0.292999 -1.697998,0.416992l-0.813049,0.069c-0.207947,0 -0.388977,0 -0.541992,0c-0.151978,0 -0.270996,0 -0.354004,0c-0.125,0 -0.222961,0 -0.291992,0c-0.5,0 -0.86499,-0.011993 -1.093994,-0.035004c-0.229004,-0.02301 -0.588013,-0.097015 -1.072998,-0.220001l-0.520996,-0.139008l-1.104004,-0.300995l-0.75,-0.161987c-0.25,-0.046021 -0.537964,-0.077026 -0.86499,-0.093018c-0.325989,-0.014984 -0.601013,-0.02298 -0.822021,-0.02298c-0.625977,0 -1.087952,0.061981 -1.385986,0.185974c-0.299988,0.124023 -0.559998,0.332001 -0.781982,0.625l-0.833008,-0.879974l0.291016,-0.417023c0.527954,-0.817993 0.898987,-1.635986 1.11499,-2.454987c0.216003,-0.817993 0.322998,-1.937012 0.322998,-3.356995l0,-0.671021l0,-0.207977l-0.041992,-1.436005c0,-0.770996 -0.020996,-1.33902 -0.062012,-1.701996c-0.041016,-0.363007 -0.075989,-0.637024 -0.104004,-0.822021c-0.151978,-1.018982 -0.305969,-1.766998 -0.458008,-2.246002c-0.153015,-0.479004 -0.367981,-0.91098 -0.645996,-1.296997c-0.166992,-0.230988 -0.354004,-0.440002 -0.562988,-0.625l0.583984,-0.925995c0.416992,0.247009 0.882019,0.42099 1.395996,0.520996c0.514038,0.101013 1.152039,0.149994 1.916992,0.149994c0.291992,0 0.938049,-0.115997 1.938049,-0.346985l1.312988,-0.278015l0.625,-0.138977c0.360962,-0.062012 0.680969,-0.108002 0.958008,-0.139008c0.277954,-0.031006 0.569946,-0.04599 0.875977,-0.04599c0.125,0 0.266968,0.007996 0.427002,0.02298c0.159973,0.016022 0.281006,0.02301 0.36499,0.02301c1.43103,0.169983 2.497009,0.497986 3.197998,0.984009s1.197998,1.216003 1.48999,2.187988l0.083008,0.255005c-0.625,0 -1.208008,0.076996 -1.75,0.230988s-1.216003,0.440002 -2.020996,0.856995l-0.604004,0.347015l0,-0.740997c-0.138977,-1.621002 -0.722961,-2.515991 -1.75,-2.686005c-0.125,-0.031006 -0.299988,-0.04599 -0.520996,-0.04599c-0.555969,0 -0.98999,0.238983 -1.302979,0.717987s-0.538025,1.289001 -0.677002,2.431c-0.041992,0.247009 -0.070007,0.548004 -0.083984,0.903015c-0.014038,0.35498 -0.021057,0.787994 -0.021057,1.296997c0,0.184998 0.011047,0.393982 0.031006,0.625s0.038025,0.408997 0.05304,0.53299c0.096985,-0.200989 0.234985,-0.385986 0.415955,-0.556c0.973022,-1.080994 1.848022,-1.621002 2.626038,-1.621002c0.583984,0 1.325989,0.30899 2.229004,0.925995l0.458984,0.348022c0.25,0.184998 0.638977,0.277985 1.166992,0.277985c0.5,0 0.971985,-0.186005 1.416992,-0.556l0.229004,-0.230988c0.069031,0.185974 0.121033,0.39798 0.156006,0.636993c0.033997,0.23999 0.052002,0.475006 0.052002,0.707001c0,0.740997 -0.200989,1.373993 -0.604004,1.89798c-0.403015,0.525024 -0.950989,0.873016 -1.645996,1.042023c-0.236023,0.061981 -0.492981,0.092987 -0.770996,0.092987c-0.390015,0 -0.760986,-0.076996 -1.11499,-0.230988s-0.815979,-0.432007 -1.385986,-0.834015l-0.333008,-0.277985c-0.348022,-0.261993 -0.612,-0.442993 -0.791992,-0.544006c-0.18103,-0.100006 -0.354004,-0.166016 -0.520996,-0.196991c-0.166016,-0.031006 -0.283997,-0.046021 -0.354004,-0.046021c-0.362,0 -0.629028,0.166016 -0.80304,0.498016s-0.309998,0.929993 -0.406006,1.794006l-0.020996,1.065002c0,1.234985 0.152039,2.145996 0.458008,2.731995s0.799011,0.957001 1.479004,1.110992c0.208008,0.04599 0.402039,0.069 0.583984,0.069c0.625,0 1.132019,-0.239014 1.520996,-0.717987s0.584045,-1.104004 0.584045,-1.875c0,-0.216003 -0.020996,-0.413025 -0.062012,-0.590027c-0.041992,-0.177002 -0.104004,-0.366974 -0.187988,-0.566986c0.75,0.463013 1.56897,0.695007 2.458984,0.695007c0.611023,0 1.263977,-0.115997 1.958984,-0.348022c0.234985,-0.076996 0.375,-0.122986 0.416016,-0.138977c0.179993,-0.093018 0.312012,-0.163025 0.395996,-0.209015z" id="svg_26"/>
     </g>
     <g opacity="0.3" id="svg_27">
      <path d="m363.259125,393.256012c-0.471985,1.218994 -1.19397,2.152985 -2.166992,2.802002c-1.083008,0.725006 -2.479004,1.087982 -4.187988,1.087982c-0.319031,0 -0.55603,0 -0.709045,0c-0.125,0 -0.221985,0 -0.290955,0c-0.291992,0 -0.584045,-0.02298 -0.876038,-0.069c-0.94397,-0.138977 -1.756958,-0.327972 -2.437988,-0.566986s-1.260986,-0.532013 -1.73999,-0.880005s-0.848022,-0.768005 -1.104004,-1.261993s-0.385986,-0.988007 -0.385986,-1.481995c0,-0.94101 0.375,-1.713013 1.125977,-2.315002c0.264038,-0.200012 0.583008,-0.347015 0.958008,-0.438995s0.848022,-0.140015 1.416992,-0.140015c0.5,0 0.947998,0.112 1.345032,0.335999c0.395996,0.225006 0.725952,0.553009 0.988953,0.984009c-0.180969,0.04599 -0.347961,0.131012 -0.5,0.255005c-0.666992,0.462982 -1,1.079987 -1,1.852997c0,0.570984 0.222046,1.079987 0.667053,1.527008c0.263977,0.246979 0.609985,0.455994 1.041992,0.625977c0.401978,0.123016 0.770996,0.184998 1.104004,0.184998c0.734985,0 1.350952,-0.227997 1.843994,-0.682983s0.73999,-1.029999 0.73999,-1.726013c0,-0.73999 -0.229004,-1.350983 -0.687988,-1.828979c-0.514038,-0.540009 -1.395996,-1.026001 -2.645996,-1.458008l-0.083008,-0.02301l-1.625,-0.509979c-0.666992,-0.184998 -1.157043,-0.343018 -1.470032,-0.475006c-0.312012,-0.131012 -0.613953,-0.289001 -0.906006,-0.475006c-0.820007,-0.493988 -1.389954,-1.015015 -1.708984,-1.562012s-0.479004,-1.261993 -0.479004,-2.141998c0,-0.679993 0.075989,-1.250977 0.229004,-1.713989c0.151978,-0.463013 0.455017,-0.987 0.906006,-1.574005s1.072998,-1.02301 1.86499,-1.30899c0.791992,-0.285004 1.736023,-0.428009 2.833984,-0.428009c0.264038,0 0.55603,0.04599 0.875,0.139008c0.320007,0.092987 0.785034,0.255005 1.396057,0.485992c0.791992,0.324005 1.458984,0.485992 2.000977,0.485992c0.31897,0 0.620972,-0.053986 0.906006,-0.161987c0.283997,-0.108002 0.593994,-0.278015 0.927979,-0.509003l0.375,-0.277985c0.041016,0.107971 0.075989,0.238983 0.104004,0.393982c0.028015,0.153992 0.049011,0.269989 0.062012,0.347015c0,0.108002 0.007019,0.223999 0.020996,0.347992c0.013977,0.122986 0.020996,0.223999 0.020996,0.300995c0,0.247009 -0.013977,0.440002 -0.041992,0.57901c-0.026978,0.138977 -0.041016,0.238983 -0.041016,0.300995c-0.153015,0.803009 -0.455017,1.432007 -0.906982,1.886993c-0.450989,0.455994 -0.968994,0.68399 -1.552002,0.68399c-0.5,0 -0.987,-0.169983 -1.458984,-0.509979c-0.194031,-0.139008 -0.382019,-0.31601 -0.562012,-0.532013s-0.403015,-0.531982 -0.666992,-0.949005c-0.389038,-0.617004 -0.770996,-1.065002 -1.145996,-1.343994c-0.375,-0.277008 -0.736023,-0.415985 -1.083008,-0.415985c-0.43103,0 -0.757996,0.173981 -0.979004,0.520996c-0.223022,0.346985 -0.333984,0.658997 -0.333984,0.937988c0,0.354004 0.162964,0.697998 0.48999,1.029999c0.325989,0.332001 0.851013,0.667999 1.572998,1.007019c0.151978,0.061981 0.513977,0.200989 1.083984,0.416992c1.30603,0.479004 2.083008,0.764008 2.333984,0.855988c1.666992,0.541016 2.913025,1.25 3.73999,2.130005c0.82605,0.880005 1.240051,1.899017 1.240051,3.057007c-0.000061,0.676971 -0.147034,1.409973 -0.439026,2.197998z" id="svg_28"/>
     </g>
    </g>
    <circle fill="#563620" stroke="#7C4F2C" stroke-width="0.2835" stroke-miterlimit="10" cx="356.117016" cy="355.563" r="14.72" id="svg_29"/>
    <circle fill="#563620" stroke="#7C4F2C" stroke-width="1.4173" stroke-miterlimit="10" cx="356.117016" cy="355.563" r="11.509" id="svg_30"/>
   </g>
  </g>
  <g id="Layer_5"/>
 </g>
</svg>